<?xml version="1.0" encoding="UTF-8" standalone="no"?>
<!-- Created with Inkscape (http://www.inkscape.org/) -->

<svg
   xmlns:dc="http://purl.org/dc/elements/1.1/"
   xmlns:cc="http://creativecommons.org/ns#"
   xmlns:rdf="http://www.w3.org/1999/02/22-rdf-syntax-ns#"
   xmlns:svg="http://www.w3.org/2000/svg"
   xmlns="http://www.w3.org/2000/svg"
   xmlns:xlink="http://www.w3.org/1999/xlink"
   xmlns:sodipodi="http://sodipodi.sourceforge.net/DTD/sodipodi-0.dtd"
   xmlns:inkscape="http://www.inkscape.org/namespaces/inkscape"
   width="210mm"
   height="297mm"
   id="svg2"
   version="1.1"
   inkscape:version="0.47 r22583"
   sodipodi:docname="addbook.svg">
  <defs
     id="defs4">
    <linearGradient
       id="linearGradient3627">
      <stop
         style="stop-color:#00ff00;stop-opacity:1;"
         offset="0"
         id="stop3629" />
      <stop
         style="stop-color:#00ff00;stop-opacity:0;"
         offset="1"
         id="stop3631" />
    </linearGradient>
    <inkscape:perspective
       sodipodi:type="inkscape:persp3d"
       inkscape:vp_x="0 : 526.18109 : 1"
       inkscape:vp_y="0 : 1000 : 0"
       inkscape:vp_z="744.09448 : 526.18109 : 1"
       inkscape:persp3d-origin="372.04724 : 350.78739 : 1"
       id="perspective10" />
    <inkscape:perspective
       id="perspective2824"
       inkscape:persp3d-origin="0.5 : 0.33333333 : 1"
       inkscape:vp_z="1 : 0.5 : 1"
       inkscape:vp_y="0 : 1000 : 0"
       inkscape:vp_x="0 : 0.5 : 1"
       sodipodi:type="inkscape:persp3d" />
    <inkscape:perspective
       id="perspective3645"
       inkscape:persp3d-origin="0.5 : 0.33333333 : 1"
       inkscape:vp_z="1 : 0.5 : 1"
       inkscape:vp_y="0 : 1000 : 0"
       inkscape:vp_x="0 : 0.5 : 1"
       sodipodi:type="inkscape:persp3d" />
    <linearGradient
       inkscape:collect="always"
       xlink:href="#linearGradient3627-0"
       id="linearGradient3633-5"
       x1="-569.57141"
       y1="308.79074"
       x2="-444.71426"
       y2="308.79074"
       gradientUnits="userSpaceOnUse"
       gradientTransform="translate(-90.913729,94.954339)" />
    <linearGradient
       id="linearGradient3627-0">
      <stop
         style="stop-color:#00ff00;stop-opacity:1;"
         offset="0"
         id="stop3629-1" />
      <stop
         style="stop-color:#00ff00;stop-opacity:0;"
         offset="1"
         id="stop3631-5" />
    </linearGradient>
    <inkscape:perspective
       id="perspective3683"
       inkscape:persp3d-origin="0.5 : 0.33333333 : 1"
       inkscape:vp_z="1 : 0.5 : 1"
       inkscape:vp_y="0 : 1000 : 0"
       inkscape:vp_x="0 : 0.5 : 1"
       sodipodi:type="inkscape:persp3d" />
    <linearGradient
       inkscape:collect="always"
       xlink:href="#linearGradient3627-6"
       id="linearGradient3633-6"
       x1="-569.57141"
       y1="308.79074"
       x2="-444.71426"
       y2="308.79074"
       gradientUnits="userSpaceOnUse"
       gradientTransform="translate(-84.852814,94.954339)" />
    <linearGradient
       id="linearGradient3627-6">
      <stop
         style="stop-color:#00ff00;stop-opacity:1;"
         offset="0"
         id="stop3629-4" />
      <stop
         style="stop-color:#00ff00;stop-opacity:0;"
         offset="1"
         id="stop3631-1" />
    </linearGradient>
    <inkscape:perspective
       id="perspective3739"
       inkscape:persp3d-origin="0.5 : 0.33333333 : 1"
       inkscape:vp_z="1 : 0.5 : 1"
       inkscape:vp_y="0 : 1000 : 0"
       inkscape:vp_x="0 : 0.5 : 1"
       sodipodi:type="inkscape:persp3d" />
  </defs>
  <sodipodi:namedview
     id="base"
     pagecolor="#ffffff"
     bordercolor="#666666"
     borderopacity="1.0"
     inkscape:pageopacity="0.0"
     inkscape:pageshadow="2"
     inkscape:zoom="0.35"
     inkscape:cx="-74.668178"
     inkscape:cy="427.17798"
     inkscape:document-units="px"
     inkscape:current-layer="layer1"
     showgrid="false"
     inkscape:window-width="1680"
     inkscape:window-height="975"
     inkscape:window-x="0"
     inkscape:window-y="24"
     inkscape:window-maximized="1" />
  <metadata
     id="metadata7">
    <rdf:RDF>
      <cc:Work
         rdf:about="">
        <dc:format>image/svg+xml</dc:format>
        <dc:type
           rdf:resource="http://purl.org/dc/dcmitype/StillImage" />
        <dc:title></dc:title>
      </cc:Work>
    </rdf:RDF>
  </metadata>
  <g
     inkscape:label="Capa 1"
     inkscape:groupmode="layer"
     id="layer1">
    <g
       id="g3757"
       inkscape:export-filename="/home/rsali/workspace/experimental/Library/web-app/images/addbook.png"
       inkscape:export-xdpi="26.709999"
       inkscape:export-ydpi="26.709999">
      <g
         transform="translate(22.857139,-35.714287)"
         id="g2830">
        <path
           id="path2844"
           d="m 60.749846,745.06611 c -0.333844,-0.86998 -0.606989,-56.17286 -0.606989,-122.89529 l 0,-121.3135 -2.885952,-6.85471 C 40.397876,453.95906 22.644682,410.15547 21.512084,405.80714 c -1.668337,-6.40518 -1.099732,-7.48853 5.390584,-10.27061 l 4.288138,-1.83811 -1.648073,-3.77526 c -3.13997,-7.19276 -3.078996,-7.39236 4.419196,-14.46577 3.837554,-3.62015 11.298171,-10.05738 16.579149,-14.30496 l 9.601779,-7.72285 0,-101.80905 c 0,-55.99498 0.273145,-102.52086 0.606989,-103.39084 0.55163,-1.43753 27.993923,-1.58179 300.893014,-1.58179 272.89909,0 300.34138,0.14426 300.89301,1.58179 0.33385,0.86998 0.60699,68.60792 0.60699,150.52875 l 0,148.94696 14.0532,33.96541 c 15.64037,37.80145 17.86249,44.48997 15.54938,46.80309 -0.80621,0.8062 -7.6841,4.02041 -15.2842,7.14269 l -13.81838,5.67688 -0.51179,102.42721 c -0.28149,56.33497 -0.61899,102.53972 -0.75,102.67722 -0.13102,0.1375 -135.41507,0.25 -300.63122,0.25 -272.996652,0 -300.448374,-0.14426 -301.000004,-1.58179 z M 211.43328,628.47561 c 46.50992,-26.74905 86.62433,-41.83846 131.04857,-49.29515 18.1878,-3.05285 33.30463,-4.52865 46.58469,-4.54787 5.81697,-0.008 11.12375,-0.36317 11.79284,-0.78833 0.88499,-0.56235 -1.60327,-7.57559 -9.13053,-25.73469 -29.60707,-71.42535 -106.83077,-257.97695 -109.15873,-263.69798 -1.05999,-2.60497 -2.49899,-4.95689 -3.19776,-5.22648 -2.07154,-0.79922 -36.3144,1.34475 -48.39942,3.03032 -54.41963,7.59022 -108.77457,28.49573 -147.499927,56.73009 -7.786782,5.67728 -9.054476,7.62418 -6.317555,9.70238 0.362166,0.275 1.901267,3.875 3.420225,8 1.518958,4.125 4.026829,10.2 5.573046,13.5 1.546217,3.3 3.58904,8.5875 4.539606,11.75 0.950566,3.1625 2.004202,5.74999 2.341412,5.74998 0.337211,-10e-6 7.588113,-4.06013 16.113113,-9.02248 36.97962,-21.52563 72.29779,-36.14136 107.5,-44.48676 14.02943,-3.32597 32.52434,-6.47039 42.25,-7.18317 7.99521,-0.58596 8.25,-0.53731 8.25,1.57528 0,2.75362 0.28544,2.66741 -17,5.13437 -37.11787,5.29742 -71.82892,15.93314 -104.5,32.01957 -16.38738,8.06875 -33.59075,18.36994 -42.49154,25.44349 -5.674055,4.50923 -6.044436,6.10038 -3.1039,13.33434 1.04751,2.57696 2.16584,5.49229 2.48517,6.4785 0.69031,2.13196 -0.52236,2.69189 19.37459,-8.94596 46.81094,-27.38003 92.04459,-43.2273 142.30876,-49.8568 9.92505,-1.30905 11.53131,-1.31454 12.80206,-0.0438 2.70521,2.70522 -0.27615,4.1722 -11.11849,5.47085 -47.2106,5.65469 -98.93574,23.65074 -136.57949,47.51832 -19.95104,12.64973 -24.6375,17.27748 -20.75755,20.49755 0.78078,0.64799 2.21967,3.40309 3.19754,6.12245 0.97786,2.71935 2.05045,4.94427 2.38353,4.94427 0.33307,0 7.33168,-3.87 15.55245,-8.6 46.49307,-26.75077 84.60183,-41.07424 129.94687,-48.84149 21.51773,-3.68583 27.34204,-4.13373 28.09908,-2.1609 1.09078,2.84251 -1.39604,4.29632 -8.47436,4.95418 -36.99653,3.43847 -81.48603,16.97081 -119.12472,36.2341 -14.49325,7.41757 -39.44756,23.44789 -41.35544,26.56619 -0.76068,1.24328 -0.172,3.40843 2.37904,8.75 1.8644,3.90386 3.82587,7.09792 4.3588,7.09792 0.53294,0 7.18777,-3.61307 14.78852,-8.02904 46.02935,-26.74266 88.02273,-42.19998 134.38993,-49.46751 18.79088,-2.94525 22.27816,-3.08657 23.10332,-0.93623 1.03899,2.70756 -1.10136,3.554 -12.79578,5.06036 -46.65662,6.00983 -94.66282,22.55155 -132.86839,45.78309 -11.78012,7.16309 -24,16.24129 -24,17.82969 0,1.71736 3.12405,9.78961 5.02412,12.98186 l 1.6203,2.72221 12.92779,-7.5837 c 27.73221,-16.26828 53.3571,-28.25244 78.85048,-36.87652 23.16528,-7.83651 54.20316,-14.67512 73.24943,-16.13913 7.98319,-0.61364 8.32788,-0.55369 8.32788,1.44838 0,1.14868 -0.3492,2.30432 -0.776,2.5681 -0.4268,0.26378 -6.3893,1.23096 -13.25,2.1493 -52.61419,7.04263 -108.00415,27.86719 -145.25263,54.60958 -8.64847,6.20913 -9.2121,6.8304 -9.07218,10 0.207,4.68918 3.58407,13.84998 5.11167,13.86618 0.69348,0.007 8.67225,-4.25272 17.7306,-9.46684 52.0199,-29.94341 91.06685,-43.16979 150.64178,-51.0269 2.47542,-0.32647 4.02815,-0.003 4.87245,1.01397 2.29377,2.76383 -0.54293,4.12823 -11.24904,5.41056 -38.10104,4.56358 -79.57483,17.26863 -114.80979,35.17073 -19.05186,9.67984 -42.94686,25.51876 -42.94686,28.46756 0,1.46072 4.92175,13.46116 6.06686,14.79251 0.40126,0.46652 6.28787,-2.43216 13.08135,-6.44149 37.46247,-22.10938 72.75574,-36.92102 108.09467,-45.36444 16.81014,-4.0164 36.64473,-7.38367 45.75712,-7.76808 5.80513,-0.24489 6.5,-0.072 6.5,1.61681 0,1.04006 -0.675,2.2245 -1.5,2.63208 -0.825,0.40759 -8.475,1.69298 -17,2.85644 -37.19901,5.07675 -72.63452,16.26518 -107.26553,33.86808 -14.35599,7.29714 -34.73946,19.99623 -41.64349,25.94429 l -3.40903,2.93699 3.69901,7.69056 3.69901,7.69056 3.21002,-1.64931 c 1.7655,-0.90712 8.61001,-4.7911 15.21001,-8.63106 44.05675,-25.63275 86.394,-41.06818 132.44102,-48.28571 18.40462,-2.88479 21.90081,-3.01968 22.72315,-0.87671 1.03102,2.68679 -1.07443,3.54449 -12.29263,5.00764 -54.56574,7.11682 -108.67217,27.44903 -148.12154,55.66137 -9.22858,6.59984 -9.65974,7.64671 -6.49248,15.76377 3.55342,9.10675 1.97887,9.22305 20.31281,-1.50023 36.59861,-21.40602 72.28385,-36.046 108.42967,-44.48359 12.65645,-2.95442 38.00413,-7.01618 43.78491,-7.01618 4.45826,0 4.82813,0.18301 4.53464,2.24378 -0.35293,2.47818 1.32772,2.05935 -23.31955,5.81149 -27.55907,4.19542 -58.35101,13.2212 -85.2144,24.97818 -20.74847,9.08073 -44.03543,22.48051 -56.97404,32.78399 l -5.18844,4.13175 2.86501,5.3689 c 1.57575,2.9529 3.60981,7.93092 4.52012,11.06228 0.91031,3.13135 2.28481,6.23928 3.05445,6.9065 0.76965,0.66722 2.3567,4.36313 3.52679,8.21313 2.18558,7.19133 3.59921,10.5 4.48611,10.5 0.27788,0 6.89955,-3.67753 14.71482,-8.17229 z M 461.64286,525.69256 c 34.71273,-20.47181 66.09156,-34.22862 98.0812,-42.99986 27.19807,-7.45744 51.58815,-11.32441 79.84829,-12.65971 8.01378,-0.37865 14.57051,-0.80109 14.57051,-0.93876 0,-0.2566 -8.22287,-20.18967 -23.28545,-56.44633 -7.71279,-18.56519 -89.20914,-215.45672 -95.61436,-231 l -2.67858,-6.5 -16.4608,0.1379 c -44.91319,0.37625 -98.34666,13.99005 -142.01513,36.18266 -21.64961,11.00247 -44.03806,25.70508 -44.74684,29.38547 -0.17755,0.92194 1.00547,4.74025 2.62893,8.48512 1.62347,3.74487 5.30118,12.43385 8.1727,19.30885 2.87151,6.875 5.55667,12.86305 5.96701,13.30677 0.41034,0.44373 7.22302,-2.98634 15.13929,-7.62237 48.35658,-28.3192 92.55774,-44.25946 141.75589,-51.12142 13.98989,-1.95125 16.05132,-1.95073 16.80151,0.004 1.03102,2.6868 -1.07443,3.54449 -12.29263,5.00764 -53.92975,7.03388 -104.50102,25.88017 -146.54798,54.61374 -4.77204,3.26107 -9.17704,6.53239 -9.78888,7.26962 -0.84169,1.01418 -0.30547,3.28643 2.20316,9.33602 l 3.31561,7.99562 2.97327,-1.53291 c 1.63531,-0.8431 7.92328,-4.46485 13.97328,-8.04832 24.51946,-14.52315 58.5317,-29.89767 82,-37.06642 21.90489,-6.69118 50.78798,-12.72008 66.33985,-13.8474 l 8.33984,-0.60455 -0.33984,2.39865 c -0.37714,2.66188 1.47211,2.18915 -23.33985,5.96637 -43.49611,6.62157 -89.63443,23.63124 -125.5,46.26769 -15.2529,9.62682 -21.1284,14.45272 -20.05324,16.47092 1.26775,2.37972 4.05324,11.75625 4.05324,13.64402 0,0.85915 0.4044,1.5621 0.89867,1.5621 0.49427,0 6.5691,-3.35664 13.49962,-7.45921 50.58707,-29.9453 94.954,-45.89203 147.54397,-53.03147 10.24448,-1.39075 11.6016,-1.39405 12.96429,-0.0313 2.65774,2.65774 -0.53076,4.2572 -10.90655,5.47108 -36.2858,4.24512 -79.309,17.13253 -111.991,33.54642 -17.61227,8.8454 -40.75278,23.51822 -45.23971,28.68536 -1.60583,1.84927 -1.6146,2.21762 -0.12155,5.10485 0.88503,1.71147 2.34265,5.26969 3.23916,7.90716 l 1.63,4.7954 16.49155,-9.63993 c 45.20187,-26.42222 86.79743,-41.93276 131.99155,-49.21827 20.69448,-3.33605 24.88032,-3.60552 25.63072,-1.65001 1.15914,3.02068 -1.94484,4.1837 -15.76378,5.90648 -36.49958,4.55034 -76.57152,17.11515 -110.86694,34.76304 -14.84841,7.64076 -38.74293,22.69892 -42.3584,26.69396 -1.63539,1.80709 -1.59472,2.13881 0.81876,6.67795 1.3968,2.62702 2.53964,5.55428 2.53964,6.50501 0,4.71684 2.39941,4.04921 18.5673,-5.16634 51.98207,-29.6293 96.00432,-45.07428 145.22307,-50.95079 10.70618,-1.27827 13.13694,-0.76827 11.88523,2.49362 -0.68919,1.79601 -0.64467,1.7861 -20.21847,4.49773 -24.98614,3.46141 -57.51934,12.40326 -81.73362,22.46473 -27.13242,11.27402 -65.85724,34.33488 -67.29831,40.07655 -0.62892,2.50583 2.73288,10.48611 5.45532,12.94988 2.27644,2.06015 1.36513,2.43121 17.61948,-7.17417 24.72479,-14.61093 57.17664,-29.33407 80.71881,-36.62147 22.63415,-7.00633 50.89499,-12.97838 67.4309,-14.24943 l 8.52987,-0.65566 -0.33979,2.4033 c -0.38152,2.69845 -0.43469,2.71297 -19.83979,5.41841 -29.14596,4.06351 -61.52564,13.47899 -91,26.4613 -17.8221,7.84995 -46.02425,24.37332 -55.88757,32.74399 l -3.38756,2.87492 3.38756,7.6844 c 1.86316,4.22641 3.8509,7.69297 4.41719,7.70347 0.56629,0.0105 6.41629,-3.19631 13,-7.12622 47.99376,-28.64818 96.08757,-45.82041 146.47038,-52.29828 10.0861,-1.2968 11.68003,-1.29896 12.96429,-0.0175 2.74351,2.73751 -0.7394,4.16485 -14.46429,5.92762 -36.75826,4.7211 -79.55448,18.09859 -112.59851,35.19669 -12.72251,6.58306 -29.48786,17.0395 -37.94501,23.66606 -6.02731,4.72268 -6.12084,4.86893 -4.23623,6.62471 1.05993,0.98748 2.72337,4.3268 3.69652,7.42071 0.97316,3.09391 2.23286,5.62529 2.79934,5.62529 0.56649,0 7.61211,-3.86453 15.65693,-8.58785 29.23293,-17.16337 58.72377,-30.28929 87.62696,-39.0014 25.21129,-7.59928 67.21552,-15.09523 69.84621,-12.46454 0.79365,0.79365 0.80436,1.59154 0.0376,2.80702 -0.81172,1.28685 -4.19726,2.10663 -13.97752,3.38455 -38.10844,4.97933 -72.49156,15.46113 -107.90634,32.89556 -17.14536,8.44053 -38.94438,21.76766 -44.65802,27.30228 l -2.65803,2.57475 2.44183,7.79481 c 1.343,4.28715 2.53911,8.11008 2.65802,8.49539 0.11891,0.38532 6.7412,-3.14324 14.7162,-7.84124 29.69541,-17.4933 58.90146,-30.65319 88.25382,-39.7661 24.18169,-7.50759 68.26321,-15.4762 70.91933,-12.82008 1.58086,1.58086 0.28345,4.09515 -2.38033,4.61292 -1.26105,0.24512 -7.91782,1.17496 -14.79282,2.06631 -21.8005,2.82645 -46.6032,9.08021 -71.51948,18.03295 -24.16533,8.6829 -58.10951,26.61901 -75.29577,39.78629 -4.49734,3.44564 -5.22187,4.44435 -4.70838,6.49024 0.55092,2.19504 9.08522,22.9057 13.49049,32.73814 0.98568,2.2 2.06915,4.81853 2.40772,5.81895 0.81477,2.40757 3.00459,1.69445 13.12542,-4.27429 z"
           style="fill:#cccbd5" />
        <path
           id="path2842"
           d="m 61.142857,624.1314 0,-122.51649 L 41.843882,454.8814 C 20.633536,403.51941 19.721659,401.13843 20.672177,399.60046 c 0.360008,-0.58251 3.088187,-2.13537 6.06262,-3.4508 2.974433,-1.31544 5.40806,-2.81732 5.40806,-3.33753 0,-0.5202 -0.878629,-2.90746 -1.952509,-5.30503 l -1.952508,-4.3592 3.148506,-3.24983 c 1.731679,-1.7874 4.856302,-4.43332 6.943607,-5.87983 4.654445,-3.22553 5.888567,-2.49534 8.309775,4.91661 0.936601,2.86718 2.594744,7.01305 3.684763,9.21305 1.090018,2.2 5.351284,12.30841 9.469479,22.46314 4.118196,10.15473 8.074935,19.60473 8.792753,21 0.717819,1.39527 2.094139,5.01186 3.05849,8.03686 0.964351,3.025 2.308092,6.40092 2.986091,7.50204 1.247529,2.02609 5.673278,12.38686 11.532561,26.99796 1.76447,4.4 4.731572,11.27237 6.593559,15.27193 1.861988,3.99957 3.385433,7.95203 3.385433,8.78325 0,0.83122 1.070434,3.63385 2.378742,6.22806 1.308308,2.59422 3.612981,7.86676 5.121501,11.71676 1.50852,3.85 3.32308,8.35 4.03235,10 0.70928,1.65 2.43217,5.925 3.82865,9.5 1.39648,3.575 3.68649,8.86029 5.08891,11.7451 1.40241,2.8848 2.54985,5.8225 2.54985,6.52821 0,0.70571 1.49095,4.42042 3.31322,8.2549 1.82227,3.83449 4.79063,10.79679 6.59636,15.47179 3.32822,8.61671 6.56116,16.43384 10.54609,25.5 1.20873,2.75 2.78921,6.8 3.51218,9 0.72297,2.2 3.05097,7.72115 5.17332,12.26922 2.12236,4.54807 3.85883,8.56849 3.85883,8.93427 0,0.36579 0.85444,2.49464 1.89874,4.73079 1.04431,2.23614 2.80759,6.54072 3.91841,9.56572 1.11081,3.025 2.97906,7.64119 4.15167,10.2582 2.52593,5.63732 0.1498,6.62409 21.71674,-9.01864 44.21783,-32.07166 93.23334,-54.50082 142.51978,-65.21608 21.81378,-4.74248 49.20284,-7.99027 67.57604,-8.01316 6.47436,-0.008 8.40845,-0.34143 8.86369,-1.52777 0.5733,-1.49399 -6.37947,-18.56097 -75.15474,-184.48255 -19.03613,-45.925 -37.14472,-89.6875 -40.24131,-97.25 l -5.63017,-13.75 -12.3003,0 c -32.99368,0 -76.29579,8.01574 -110.81855,20.51384 -30.07599,10.88826 -60.428582,26.94944 -84.065643,44.48362 -5.405274,4.00968 -10.526754,7.33808 -11.381066,7.39644 -1.393411,0.0952 -1.579512,-10.41865 -1.80801,-102.1439 l -0.254715,-102.25 300.492044,0 300.49204,0 0.26268,151.25 0.26267,151.25 13.86291,33 c 7.6246,18.15 14.73742,35.63187 15.80628,38.8486 2.3711,7.13583 2.78664,6.70057 -12.16919,12.74656 -5.775,2.33458 -12.1875,5.07737 -14.25,6.09509 l -3.75,1.8504 0,102.47967 0,102.47968 -300.5,0 -300.500003,0 0,-122.5165 z M 431.66903,548.023 c 65.02246,-47.70108 134.85806,-73.64306 204.75823,-76.06198 9.78142,-0.33849 18.01463,-0.98795 18.29602,-1.44325 0.28139,-0.45529 -3.74139,-11.07477 -8.93951,-23.59884 C 622.65156,391.18545 537.23513,184.57012 535.1265,179.24806 l -2.33755,-5.89983 -16.07305,0.62504 c -32.12076,1.24909 -62.93223,6.66878 -93.07304,16.3714 -45.37882,14.60787 -93.02006,41.75245 -120.25,68.51491 -6.94281,6.82362 -8.30789,9.01648 -6.36164,10.21932 0.4886,0.30197 2.79138,5.39103 5.1173,11.30902 2.32591,5.91799 4.81115,12.10998 5.52273,13.75998 0.71159,1.65 2.50955,6.15 3.99546,10 1.48592,3.85 3.07552,7.4655 3.53246,8.03445 0.45694,0.56895 3.81122,8.44395 7.45396,17.5 3.64273,9.05605 7.49313,18.16691 8.55644,20.24634 1.06331,2.07944 1.93329,4.38595 1.93329,5.12557 0,1.2598 2.69826,7.85868 6.98953,17.09364 1.02229,2.2 3.03799,6.925 4.47934,10.5 1.44136,3.575 3.01811,7.4 3.50389,8.5 0.48579,1.1 2.09139,5.15 3.568,9 1.47662,3.85 2.99116,7.45 3.36567,8 0.3745,0.55 1.51675,3.475 2.53833,6.5 1.02158,3.025 3.58008,9.18354 5.68554,13.68565 2.10546,4.5021 6.03503,13.75663 8.73238,20.5656 2.69734,6.80898 6.00371,14.82544 7.34747,17.81435 1.34376,2.98892 3.02859,7.2344 3.74407,9.4344 0.71547,2.2 2.18025,5.8 3.25506,8 1.07481,2.2 5.32364,12.30841 9.44183,22.46314 4.1182,10.15473 8.07494,19.60473 8.79276,21 0.71781,1.39527 2.09849,5.01186 3.06817,8.03686 0.96968,3.025 2.53133,6.85 3.47033,8.5 0.93901,1.65 2.30254,4.575 3.03006,6.5 1.64959,4.36477 2.87457,6 4.49469,6 0.69423,0 6.5528,-3.88121 13.01905,-8.6249 z m -25.2311,-46.04854 c -0.77078,-2.00862 1.93263,-4.39834 16.76371,-14.81848 39.52111,-27.76706 81.37232,-47.12775 125.36146,-57.99317 15.71334,-3.88123 33.18873,-7.0336 44.84841,-8.09018 6.65738,-0.60327 7.73135,-0.48243 7.73135,0.86995 0,1.88013 -1.46655,2.35332 -10,3.22654 -9.26301,0.94788 -31.77172,5.14018 -43.5,8.10198 -46.93849,11.85359 -93.92962,35.16528 -129.5,64.24327 -7.6966,6.2918 -10.58037,7.39064 -11.70493,4.46009 z m -9.04507,-22.98884 c -4.69483,-1.8944 4.66738,-10.058 30.52003,-26.61267 46.45297,-29.74603 96.32913,-48.29198 148.56685,-55.24312 8.77469,-1.16763 13.16155,-1.3835 13.86287,-0.68218 1.87874,1.87874 -0.0793,2.91172 -6.83018,3.60337 -18.60098,1.90572 -48.61226,8.46212 -68.36957,14.93632 -38.87873,12.74003 -75.91932,32.56208 -105.87812,56.66005 -5.47046,4.40028 -10.0983,7.96498 -10.28409,7.92156 -0.18578,-0.0434 -0.90029,-0.30592 -1.58779,-0.58333 z m -10.58333,-25.00439 c -1.98645,-1.98644 0.0533,-4.66597 8.08333,-10.61847 49.4008,-36.62004 103.05405,-59.85738 159.69235,-69.16311 19.34417,-3.17827 26.05765,-3.57956 26.05765,-1.55756 0,1.16229 -3.33186,1.97837 -15,3.67402 -63.44202,9.21954 -123.59827,34.84186 -167.66869,71.41504 -8.08188,6.707 -9.76532,7.6494 -11.16464,6.25008 z m -11.05968,-25.91512 c -0.33385,-0.86998 -0.60699,-1.74976 -0.60699,-1.95506 0,-0.71684 15.58405,-12.18182 26,-19.12786 28.25562,-18.8427 61.74375,-35.33786 90.79244,-44.7214 23.79427,-7.68622 52.27377,-13.91552 69.76748,-15.26019 7.43404,-0.57142 8.44008,-0.45237 8.44008,0.99877 0,0.90614 -0.20953,1.64753 -0.46562,1.64753 -0.25609,0 -5.54359,0.68953 -11.75,1.53228 -63.00539,8.55537 -122.46167,33.41502 -168.28438,70.36246 -10.0995,8.14336 -12.78714,9.40534 -13.89301,6.52347 z m -10.31192,-25.09165 c -0.77078,-2.00862 1.93263,-4.39834 16.76371,-14.81848 31.10398,-21.85328 64.55514,-38.92073 98.94122,-50.48178 20.85568,-7.01195 52.19899,-13.87456 71.25,-15.60018 6.67492,-0.6046 7.75,-0.48412 7.75,0.86856 0,1.88013 -1.46655,2.35332 -10,3.22654 -9.26301,0.94788 -31.77172,5.14018 -43.5,8.10198 -46.93849,11.85359 -93.92962,35.16528 -129.5,64.24327 -7.6966,6.2918 -10.58037,7.39064 -11.70493,4.46009 z m -9.14346,-23.2117 c -2.92071,-1.85093 -0.11856,-4.97286 12.86136,-14.32909 47.42833,-34.18746 101.58469,-57.05986 155.48703,-65.66839 17.02867,-2.71959 25,-3.10124 25,-1.19697 0,1.06998 -3.82403,1.97189 -15.5,3.65573 -62.00966,8.94268 -120.20488,33.61615 -165.66221,70.23707 -5.58921,4.50274 -10.31421,8.1799 -10.5,8.17148 -0.18578,-0.008 -0.94457,-0.39985 -1.68618,-0.86983 z M 345.50449,354.1479 c -0.31659,-0.825 -0.34077,-2.11199 -0.0537,-2.85997 0.68035,-1.77296 24.26729,-18.58006 37.69211,-26.85786 40.22287,-24.80161 85.29652,-41.81292 130.44235,-49.23042 19.35617,-3.18024 26.05765,-3.57997 26.05765,-1.55428 0,1.1642 -3.22703,1.96655 -14.5,3.6052 -25.05091,3.64144 -40.54094,7.23126 -63,14.60028 -38.16375,12.52186 -74.69432,32.21903 -104.63084,56.41662 -9.455,7.64244 -11.03455,8.41599 -12.00753,5.88043 z m -10.75464,-25.08179 c -0.33385,-0.86998 -0.60699,-1.74976 -0.60699,-1.95506 0,-0.66469 15.24753,-11.95273 24.68225,-18.27274 37.06754,-24.83033 76.27776,-42.47705 117.99064,-53.10218 11.9406,-3.04152 34.45635,-7.00963 43.88703,-7.73453 7.43404,-0.57142 8.44008,-0.45237 8.44008,0.99877 0,0.90614 -0.20953,1.64753 -0.46562,1.64753 -0.25609,0 -5.54359,0.68953 -11.75,1.53228 -62.93976,8.54646 -121.98128,33.19996 -168.45431,70.34014 -10.3458,8.26812 -12.64189,9.36334 -13.72308,6.54579 z m -10.31192,-25.09165 c -0.44222,-1.15242 0.42373,-2.56489 2.78139,-4.53672 5.2436,-4.38549 23.34262,-16.94542 34.98232,-24.27619 11.88998,-7.4884 43.2751,-23.45091 55.94122,-28.45176 30.45449,-12.02407 66.87054,-21.25511 93.25,-23.63776 6.67407,-0.60281 7.75,-0.48196 7.75,0.87055 0,1.88013 -1.46655,2.35332 -10,3.22654 -9.27981,0.9496 -31.78795,5.14366 -43.5,8.10558 -47.40219,11.98781 -93.63868,34.92385 -129.5,64.23967 -7.6966,6.2918 -10.58037,7.39064 -11.70493,4.46009 z m -170.6284,304.00677 c -1.66874,-1.66873 -0.1304,-3.65041 7.08333,-9.12472 49.31493,-37.4238 106.74481,-62.07346 165.89113,-71.20267 15.86609,-2.44892 21.35887,-2.57903 21.35887,-0.50594 0,0.825 -0.3375,1.50704 -0.75,1.51564 -0.4125,0.009 -6.825,0.87931 -14.25,1.93491 -62.20763,8.84395 -120.3199,33.40327 -166.02009,70.16314 -9.25353,7.44327 -11.7408,8.79209 -13.31324,7.21964 z m -10.3716,-26.00677 c -0.77078,-2.00862 1.93263,-4.39834 16.76371,-14.81848 31.10128,-21.85139 65.25195,-39.2679 99.09743,-50.53874 21.17521,-7.05153 52.17945,-13.82998 71.09379,-15.54322 6.76424,-0.61269 7.75,-0.49607 7.75,0.9169 0,1.84312 -0.91814,2.08455 -14,3.68128 -12.8797,1.57206 -35.52055,6.30808 -49.78781,10.41462 -44.14428,12.70606 -83.89361,33.02042 -117.85858,60.23303 -9.3468,7.48861 -11.92616,8.60553 -13.05854,5.65461 z m -9.93344,-23.82656 c -1.02574,-2.67302 0.31848,-4.13824 10.81054,-11.78371 31.60372,-23.02936 65.28173,-40.80513 100.44456,-53.01619 31.34288,-10.8845 82.88327,-20.65459 82.88327,-15.7115 0,1.1415 -2.44828,1.79015 -10.5,2.78189 -24.84214,3.05983 -56.72896,10.95201 -80.5,19.92424 -33.09966,12.49325 -70.59485,34.11709 -94.21171,54.3328 -6.08425,5.20804 -7.97798,5.9447 -8.92666,3.47247 z m -10.05216,-25.13592 c -1.01537,-2.64601 0.69155,-4.32497 14.28449,-14.05048 50.8461,-36.37952 108.16356,-59.33756 166.83655,-66.82501 9.32496,-1.18999 12.09507,-1.25622 12.68402,-0.30328 1.3003,2.10394 0.1842,2.53085 -9.84578,3.76604 -63.14042,7.77571 -124.34431,33.29663 -171.89959,71.67904 -5.02197,4.05329 -9.64859,7.36961 -10.28139,7.36961 -0.6328,0 -1.43303,-0.73617 -1.7783,-1.63592 z m -11.0144,-25.03752 c -0.7979,-2.0793 2.05713,-4.56083 18.70493,-16.25793 44.65233,-31.37368 93.409,-52.02076 145.30992,-61.53469 7.59546,-1.39231 17.60796,-2.82342 22.25,-3.18024 7.31226,-0.56206 8.44008,-0.43679 8.44008,0.9375 0,1.11013 -1.27566,1.75729 -4.25,2.15608 -17.19166,2.305 -26.83261,3.90003 -37.25,6.16279 -51.30583,11.14409 -100.78616,34.33091 -139.16221,65.21234 -10.32564,8.30911 -12.89367,9.49854 -14.04272,6.50415 z m -9.62841,-23.99323 c -1.66873,-1.66873 -0.13039,-3.65041 7.08334,-9.12472 31.69589,-24.05317 69.91753,-44.33376 106.85784,-56.69928 23.07849,-7.72537 52.69616,-14.28363 72.64216,-16.0852 6.76342,-0.61088 7.75,-0.49391 7.75,0.91889 0,1.84136 -0.90296,2.07936 -14,3.69009 -59.32256,7.29573 -121.38799,33.43896 -167.64639,70.61608 -8.63469,6.93956 -11.1214,8.24969 -12.68695,6.68414 z M 92.452325,459.01198 c -1.012741,-2.63916 0.694544,-4.33005 13.983765,-13.84946 19.47742,-13.95217 32.46933,-21.73882 54.20677,-32.4886 21.90995,-10.83509 40.0309,-17.9409 61.21366,-24.00385 24.34486,-6.96802 62.14855,-13.55996 64.46718,-11.24133 1.90579,1.90579 -0.0496,2.92971 -6.90273,3.61455 -61.37598,6.13334 -127.85448,33.75032 -176.44285,73.29916 -8.221814,6.69221 -9.527368,7.27139 -10.525795,4.66953 z m -10,-25 C 81.44091,431.37627 83.144397,429.686 96.236708,420.3345 148.13221,383.2669 204.06809,360.80913 263.57562,353.14938 c 11.42231,-1.47026 14.7031,-1.14836 13.19332,1.29451 -0.32981,0.53365 -3.1931,1.26826 -6.36286,1.63248 -64.50617,7.41201 -126.65953,32.74164 -174.617529,71.16263 -5.772903,4.6249 -10.993949,8.4089 -11.602325,8.4089 -0.608376,0 -1.388632,-0.73617 -1.733901,-1.63592 z M 71.809524,409.98123 c -1.787918,-1.78791 0.207793,-3.99492 10.583333,-11.70384 49.309583,-36.63653 105.991193,-60.37863 164.878343,-69.06222 13.52029,-1.99372 18.87166,-2.03772 18.87166,-0.15517 0,1.47615 -1.09487,1.72567 -16,3.64637 -57.69486,7.43465 -120.14506,33.88992 -164.662209,69.7545 -9.584484,7.7216 -12.091053,9.10044 -13.671127,7.52036 z"
           style="fill:#b8b7c5" />
        <path
           id="path2840"
           d="m 61.142857,623.6897 0,-122.95821 -19.33238,-46.79179 C 31.177668,428.20421 21.887704,405.66036 21.166112,403.84227 c -0.80241,-2.02173 -0.953219,-3.66441 -0.388284,-4.22934 1.558393,-1.55839 12.826255,-5.85535 13.475393,-5.13879 0.527629,0.58243 8.881064,20.59886 37.423454,89.67376 3.408976,8.25 17.117091,41.325 30.462475,73.5 13.34539,32.175 29.63893,71.55 36.20788,87.5 6.56894,15.95 12.25448,29.32168 12.63452,29.71483 0.38004,0.39316 6.7593,-4.24335 14.17614,-10.30335 15.04256,-12.29068 26.2386,-20.40461 40.8522,-29.6062 10.98609,-6.91749 31.92888,-17.84271 32.70854,-17.06305 0.27775,0.27775 0.85705,2.73205 1.28733,5.454 0.86399,5.4656 4.25962,9.82594 6.97955,8.96249 4.56622,-1.44955 10.75472,-3.90638 11.64967,-4.62491 1.71684,-1.3784 33.46319,-13.64976 44.00788,-17.01097 27.4844,-8.76091 56.19694,-13.9966 88.29166,-16.09985 9.18959,-0.60222 16.84575,-1.23117 17.0137,-1.39766 0.16795,-0.1665 -1.09322,-3.92938 -2.8026,-8.36196 -2.95243,-7.65591 -3.02989,-8.21023 -1.54766,-11.07653 2.18426,-4.22391 27.06643,-24.21834 45.5449,-36.59829 17.02275,-11.40467 40.28376,-24.04925 42.13561,-22.90474 0.73375,0.45349 0.90606,0.29263 0.45988,-0.4293 -0.40384,-0.65343 -0.13155,-1.15451 0.62739,-1.15451 0.7375,0 1.44032,1.20127 1.56184,2.66949 0.12151,1.46822 0.45488,2.90344 0.74082,3.18938 0.6658,0.6658 9.00757,-2.30209 17.97446,-6.39507 39.9605,-18.24018 86.78667,-29.45233 130.13774,-31.16044 l 15.13774,-0.59646 -1.38774,-3.32133 c -0.76326,-1.82673 -1.38774,-4.47693 -1.38774,-5.88933 0,-1.4124 -26.49206,-66.56435 -58.87125,-144.78212 -32.37918,-78.21777 -59.66288,-144.34523 -60.63043,-146.94993 -0.96756,-2.6047 -2.26568,-5.15615 -2.88471,-5.6699 -1.44985,-1.20327 -32.19956,0.34051 -47.97602,2.40862 -35.82922,4.6968 -72.80195,15.74969 -105.35061,31.49427 -35.17994,17.01738 -60.53654,34.42464 -85.28698,58.54935 l -11.5,11.20926 -16.5,0.68427 c -46.8225,1.94176 -88.08367,11.37288 -129.97922,29.70952 -22.55519,9.87183 -48.989497,25.24515 -66.260581,38.53494 -3.335611,2.56669 -6.470212,4.257 -7.302294,3.9377 -1.263964,-0.48503 -1.457908,-14.06605 -1.457908,-102.09084 l 0,-101.53138 300.500003,0 300.5,0 0,150.62484 0,150.62483 15.04883,36.62517 c 8.27686,20.14384 15.47686,37.65883 16,38.92221 1.73041,4.1789 2.89806,3.37344 -16.54883,11.41553 -6.6,2.72937 -12.5625,5.4282 -13.25,5.9974 -0.98512,0.81561 -1.25,22.72904 -1.25,103.41246 l 0,102.37756 -300.5,0 -300.500003,0 0,-122.9582 z m 208.000003,32.8771 c 34.25385,-16.22856 72.18835,-27.20974 110.5,-31.98725 4.95,-0.61727 16.24312,-1.41691 25.09581,-1.77698 l 16.09581,-0.65467 -3.55205,-7.89764 -3.55206,-7.89765 -20.54376,0.61255 c -36.32419,1.08306 -63.28142,5.56695 -97.70958,16.2524 -13.51282,4.19396 -33.38045,12.02635 -37.9991,14.98033 -1.46743,0.93853 -1.99367,2.03952 -1.63337,3.41732 0.4344,1.66113 0.0533,2.03269 -2.08507,2.03269 -2.43721,0 -2.61663,0.31071 -2.61663,4.53138 0,3.10541 0.47203,4.71253 1.5,5.10699 0.825,0.31659 1.5,1.20246 1.5,1.96862 0,0.76615 0.8632,1.39301 1.91821,1.39301 2.82908,0 5.14959,1.08128 4.51703,2.10478 -1.04204,1.68606 2.06703,0.89257 8.56476,-2.18588 z M 529.52097,548.43332 c 41.19068,-18.5848 94.60529,-30.78072 134.82753,-30.78458 l 8.70564,-8.4e-4 -1.35738,-3.84724 c -1.31124,-3.71645 -5.35527,-12.15391 -5.82422,-12.15166 -4.76654,0.0228 -41.11556,4.62517 -51.22968,6.48645 -29.26578,5.38572 -64.19095,16.84078 -88.75026,29.10909 -11.429,5.70922 -13.74974,7.79724 -13.74974,12.37092 0,6.2775 0.99483,6.20983 17.37811,-1.18214 z m -22.96221,3.57314 c 0.52667,-1.37248 0.38034,-1.43434 -0.89301,-0.37756 -1.73524,1.44013 -1.91584,2.019 -0.62988,2.019 0.49116,0 1.17646,-0.73865 1.52289,-1.64144 z m -3.99923,-18.60856 c 0.46277,-0.99165 0.70582,-0.98587 1.17597,0.0279 0.95594,2.06131 6.59339,0.48022 22.40736,-6.28442 39.24917,-16.78935 76.85455,-25.68657 120.28877,-28.45963 8.68383,-0.55442 16.10883,-0.90135 16.5,-0.77096 1.61348,0.53783 1.34167,-1.69234 -0.89147,-7.31455 -2.7622,-6.9542 -0.75898,-6.5614 -22.8973,-4.48976 -36.80686,3.44427 -65.94911,10.79622 -105,26.48918 -6.34374,2.54929 -23.97016,11.26154 -28.75,14.21033 -1.7875,1.10275 -3.25,2.6433 -3.25,3.42344 0,0.78014 -0.62686,1.41844 -1.39301,1.41844 -0.76616,0 -1.65203,0.675 -1.96862,1.5 -0.715,1.86326 2.9134,2.10334 3.7783,0.25 z m -262.41667,83.69156 c 0,-0.20415 0.9,-0.85286 2,-1.44156 1.10492,-0.59134 2,-0.65928 2,-0.15182 0,0.50521 -0.9,1.15391 -2,1.44157 -1.1,0.28766 -2,0.35597 -2,0.15181 z m -85.40895,-10.29424 c -0.82135,-1.32897 1.27246,-3.41275 9.90895,-9.86153 49.39481,-36.88257 106.47186,-60.7229 166.06274,-69.36224 13.66772,-1.98151 18.99101,-1.98478 16.85448,-0.0104 -0.50447,0.46619 -5.41722,1.38795 -10.91722,2.04836 -60.26757,7.23653 -120.84053,32.26101 -168.67696,69.68542 -10.52882,8.23713 -12.19347,9.18071 -13.23199,7.50035 z m -10.59105,-25.54278 c 0,-1.82343 17.95986,-15.18239 34.98286,-26.02105 43.26103,-27.54462 91.51696,-45.30312 143.01714,-52.63125 16.24294,-2.31126 15,-2.26782 15,-0.5242 0,0.99588 -1.74011,1.62627 -5.75,2.08306 -63.5421,7.23839 -125.99946,32.61034 -174.41722,70.85323 -9.40823,7.43111 -12.83278,9.09637 -12.83278,6.24021 z m -9.67541,-24.20106 c -0.76628,-1.99689 0.14116,-2.79831 16.50465,-14.57629 36.97211,-26.61148 81.26001,-47.04081 125.43225,-57.85996 23.39231,-5.72951 50.73851,-9.58889 50.73851,-7.16076 0,0.6066 -1.4625,1.3101 -3.25,1.56334 -1.7875,0.25324 -10.675,1.6201 -19.75,3.03747 -54.9313,8.57941 -107.68633,30.86652 -151.99205,64.2112 -18.04208,13.57856 -16.88271,12.87146 -17.68336,10.785 z m -10.32459,-25.21724 c 0,-1.11062 3.39211,-4.37243 8.75,-8.4139 49.46262,-37.30976 106.63348,-61.29172 167.37834,-70.21165 13.03876,-1.91464 17.18338,-1.99585 16.62669,-0.32578 -0.25554,0.76663 -4.55312,1.72128 -11.33333,2.51755 -35.05838,4.11726 -73.38917,15.54585 -107.9217,32.1776 -23.80231,11.46381 -41.01298,22.1899 -62.28055,38.81469 -5.10477,3.99039 -9.71746,7.25525 -10.25042,7.25525 -0.53297,0 -0.96903,-0.81619 -0.96903,-1.81376 z M 496.36103,514.4934 c 0.51903,-1.5571 2.75625,-1.82979 2.83465,-0.3455 0.029,0.55 -0.69777,1.15548 -1.61517,1.3455 -1.04271,0.21599 -1.49986,-0.15888 -1.21948,-1 z m -382.82047,-7.01101 c -0.86042,-1.3922 1.29105,-3.23409 16.6023,-14.21331 47.70878,-34.2105 102.58637,-56.48964 159.29204,-64.6692 8.13562,-1.17353 15.47664,-1.87099 16.31338,-1.5499 2.91023,1.11676 0.40963,2.32019 -6.23585,3.00104 -35.81241,3.66909 -82.44144,17.53815 -116.44454,34.63458 -19.00109,9.55356 -40.12254,22.96245 -57.20955,36.31931 -5.37759,4.20365 -10.18694,7.64299 -10.68744,7.64299 -0.50051,0 -1.23416,-0.52448 -1.63034,-1.16551 z m 293.6023,-6.17851 c 0,-1.30603 15.36662,-13.22753 27.5,-21.33464 29.3633,-19.61957 68.35466,-37.64197 102,-47.14596 23.12133,-6.53122 61.70217,-13.37321 63.76686,-11.30852 1.38751,1.38751 -0.0959,1.88121 -9.2951,3.09346 -50.51248,6.65648 -96.04887,22.37432 -138.22478,47.71116 -10.6633,6.40589 -30.62077,20.50309 -38.17698,26.96675 -4.03853,3.45461 -7.57,4.39591 -7.57,2.01775 z m -304,-19.05144 c 0,-1.42223 15.45581,-13.30655 29,-22.29876 42.32227,-28.09845 96.66527,-49.06391 144.5,-55.7479 20.60755,-2.87951 19.5,-2.81186 19.5,-1.19111 0,1.07047 -1.61709,1.67353 -5.75,2.14433 -64.07544,7.29914 -126.56725,32.81857 -175.38894,71.62258 -8.43996,6.70817 -11.86106,8.28614 -11.86106,5.47086 z m 294.36585,-5.09355 c -0.76954,-2.00537 0.57676,-3.19983 16.13415,-14.31444 46.47153,-33.20049 96.88179,-54.24754 152.34635,-63.60693 16.0204,-2.70336 24.15365,-3.25389 24.15365,-1.63493 0,0.52507 -1.4625,1.17017 -3.25,1.43355 -26.02756,3.83496 -33.90661,5.23829 -45.78165,8.15413 -45.10833,11.07607 -87.4252,30.59639 -122.96835,56.72397 -5.225,3.84087 -10.625,7.99395 -12,9.22908 -1.375,1.23512 -3.73292,3.02768 -5.23981,3.98346 -2.576,1.63389 -2.77895,1.63581 -3.39434,0.0321 z M 93.467447,458.05138 c -0.780635,-2.0343 0.296662,-2.97333 17.412503,-15.17781 45.58518,-32.50456 96.78792,-53.68187 151.72827,-62.75438 15.71397,-2.59491 23.53464,-3.10419 23.53464,-1.53256 0,0.5163 -2.1375,1.22112 -4.75,1.56627 -2.6125,0.34516 -11.52594,1.72852 -19.80765,3.07414 -56.76887,9.2239 -111.64805,33.222 -156.44235,68.41063 -10.747228,8.44259 -10.870808,8.51048 -11.675413,6.41371 z m 293.675413,-6.18959 c 0,-2.04258 14.34293,-13.00029 32,-24.44735 37.92499,-24.58674 80.51324,-41.92213 124.5,-50.67727 16.77686,-3.33928 35.11755,-5.80506 36.07285,-4.84975 1.26351,1.26351 -0.77198,2.76048 -3.75353,2.76048 -10.33729,0 -43.96431,6.77539 -64.70029,13.03624 -40.54525,12.24189 -82.0529,33.91331 -113.78104,59.40585 -8.57363,6.88864 -10.33799,7.70303 -10.33799,4.7718 z M 83.142857,432.80388 c 0,-3.63078 33.882793,-26.99776 57.636213,-39.74832 23.53952,-12.63574 54.44621,-24.64641 80.86379,-31.42452 22.3474,-5.7338 54.5,-10.53611 54.5,-8.14012 0,1.33231 -1.66864,1.72472 -13.5,3.17471 -59.61061,7.30561 -123.72954,34.49691 -170.171392,72.1656 -7.63579,6.19334 -9.328611,6.91424 -9.328611,3.97265 z m 293.591053,-5.00866 c -0.81488,-1.3185 1.23985,-3.35716 9.90895,-9.83144 47.08357,-35.16308 102.6042,-59.06857 158.5,-68.24526 14.61265,-2.39903 23.38269,-2.97808 23.78789,-1.57062 0.15835,0.55 -2.54165,1.36195 -6,1.80433 -66.0804,8.45284 -126.3008,33.18085 -174.92683,71.82935 -8.52439,6.77528 -10.23512,7.68812 -11.27001,6.01364 z M 72.809524,408.98123 c -1.342661,-1.34266 -0.492775,-2.24078 8.583333,-9.0705 40.729413,-30.64863 85.260923,-51.97449 133.061933,-63.72252 23.0263,-5.65916 49.78451,-9.41738 50.46711,-7.08816 0.15347,0.52368 -6.59653,1.94376 -15,3.15573 -61.60306,8.88455 -117.32035,32.42841 -165.063564,69.74913 -9.765779,7.63388 -10.795207,8.22993 -12.048812,6.97632 z m 293.748536,-6.47054 c -0.78064,-1.2631 -0.21064,-1.76063 14.0848,-12.29406 41.69717,-30.72409 91.97976,-53.0064 142,-62.92609 18.17765,-3.60487 35.66612,-5.87652 36.76686,-4.77578 1.38751,1.38751 -0.0959,1.88121 -9.2951,3.09346 -64.80319,8.5397 -123.85346,32.96665 -172.1107,71.19593 -8.83871,7.00201 -10.21969,7.69052 -11.44586,5.70654 z m -9.74853,-23.52946 c -1.67838,-1.67838 0.0696,-3.57172 10.48554,-11.35749 38.40733,-28.70895 85.23302,-50.85134 131.07783,-61.98258 14.87226,-3.61103 40.28293,-7.99326 46.34943,-7.99326 5.12645,0 5.9517,1.68377 1.17053,2.38824 -26.02756,3.83496 -33.90661,5.23829 -45.78165,8.15413 -47.13383,11.57342 -88.60283,31.08349 -126.66547,59.59272 -7.25841,5.43662 -13.47247,10.33029 -13.80901,10.87483 -0.70816,1.14583 -1.87169,1.27893 -2.8272,0.32341 z m -10.66667,-26.11944 c 0,-1.10463 3.91081,-4.68406 10.25,-9.38148 50.48509,-37.41007 105.57696,-60.41673 165.87834,-69.27169 12.28,-1.80326 16.87166,-1.96104 16.87166,-0.57977 0,1.19301 -0.77685,1.35496 -19,3.96076 -58.33155,8.34106 -114.77006,32.39923 -161.17696,68.70526 -5.87234,4.59417 -11.15984,8.35303 -11.75,8.35303 -0.59017,0 -1.07304,-0.80375 -1.07304,-1.78611 z m -10.40895,-24.06657 c -0.81488,-1.3185 1.23985,-3.35716 9.90895,-9.83144 44.93769,-33.56049 96.62522,-56.53657 150,-66.6778 19.1581,-3.64005 31.48073,-5.05735 32.76911,-3.76897 1.45493,1.45493 0.4748,1.7023 -14.26911,3.60122 -58.49102,7.53329 -119.95773,33.3993 -166.25042,69.9604 -9.45951,7.47094 -11.12403,8.39045 -12.15853,6.71659 z m -10.59105,-25.49134 c 0,-0.73921 4.93963,-5.03632 10.97695,-9.54913 42.91727,-32.08007 92.06621,-54.38188 143.29781,-65.0228 15.88234,-3.29879 37.47512,-6.35667 38.85682,-5.50273 1.86825,1.15464 -0.29556,2.20704 -5.86836,2.85416 -63.98162,7.42957 -126.53219,33.00608 -175.40216,71.72077 -8.39583,6.65117 -11.86106,8.25792 -11.86106,5.49973 z"
           style="fill:#a09eac" />
        <path
           id="path2838"
           d="m 61.904482,623.3979 -0.261625,-123.25 -20.187478,-48.5 C 30.352267,424.9729 20.9931,402.4294 20.657231,401.55123 c -0.460923,-1.20513 0.659932,-2.1247 4.57083,-3.75 6.402491,-2.66075 7.562584,-2.67996 8.917827,-0.14767 0.762524,1.42479 111.129882,267.29707 115.710742,278.74434 0.85689,2.14132 2.21962,1.43599 9.10708,-4.71372 8.57447,-7.65601 22.32102,-18.02539 23.90416,-18.03153 1.27261,-0.005 4.61016,6.49818 5.83058,11.3607 0.38597,1.53784 1.30507,3.02759 2.04244,3.31054 0.73737,0.28296 7.7817,-3.52085 15.65407,-8.45291 62.89049,-39.40106 119.65978,-58.47749 185.07939,-62.19302 9.80732,-0.55701 18.23167,-1.26008 18.72078,-1.56236 0.48911,-0.30229 -0.66957,-4.91114 -2.57485,-10.24188 -1.90529,-5.33074 -3.22174,-10.45603 -2.92546,-11.38953 0.93354,-2.94132 28.11068,-24.84493 30.80805,-24.82997 0.62699,0.003 1.92329,1.38263 2.88066,3.06479 1.12483,1.97639 2.18622,2.79399 3,2.31094 0.69263,-0.41113 6.43433,-3.9596 12.75933,-7.88548 33.41565,-20.74083 61.01016,-34.28602 90.71397,-44.52832 11.03417,-3.80475 29.46917,-8.9985 31.74086,-8.94247 0.57484,0.0142 -6.15483,2.44682 -14.95483,5.40587 -39.77965,13.37611 -70.77173,29.88843 -99.5,53.01275 -13.86524,11.16059 -16,13.45318 -16,17.18296 0,2.06824 0.49354,3.37264 1.27611,3.37264 0.70186,0 9.36436,-4.97633 19.25,-11.0585 33.59707,-20.67072 70.1187,-37.31437 101.88872,-46.43275 19.81719,-5.68778 23.47959,-5.80845 5.58517,-0.18403 -44.1368,13.8727 -85.77752,36.79074 -114.75,63.15561 -5.17021,4.70487 -6.24735,6.23447 -6.23469,8.85357 0.0194,4.01606 1.3313,6.17183 3.12289,5.13176 0.74899,-0.43482 8.31948,-5.28871 16.82331,-10.78643 59.90253,-38.72693 116.2141,-57.79979 182.53849,-61.82621 10.45,-0.6344 19.12892,-1.25228 19.2865,-1.37307 0.15757,-0.12079 -1.68578,-4.89069 -4.09635,-10.59978 -2.41057,-5.70909 -4.64047,-11.05517 -4.95532,-11.88017 -0.31486,-0.825 -2.634,-6.43769 -5.15365,-12.47265 -2.51965,-6.03496 -4.58118,-11.5391 -4.58118,-12.23142 0,-0.69232 -26.14912,-64.37963 -58.10916,-141.52735 -31.96004,-77.14772 -59.23724,-143.41858 -60.616,-147.26858 -1.37876,-3.85 -3.01361,-7.62741 -3.63299,-8.39424 -0.91702,-1.13532 -4.19182,-1.28452 -17.634,-0.8034 -83.0064,2.97091 -165.31668,37.37062 -224.40378,93.78445 l -10.35975,9.89104 -18.37216,1.0048 c -10.10469,0.55264 -22.19716,1.47052 -26.87216,2.03973 -57.91748,7.05182 -114.88546,28.96723 -160.874931,61.88809 -6.215458,4.44924 -11.711287,8.08953 -12.212953,8.08953 -0.543501,0 -0.912119,-41.01952 -0.912119,-101.5 l 0,-101.5 299.750003,3e-5 299.75,3e-5 0,151.24997 0,151.24997 16.31522,38.85144 c 8.97338,21.3683 16.17338,38.96206 16,39.09726 -0.17337,0.1352 -6.61522,2.8338 -14.31522,5.99688 -7.7,3.16308 -15.01874,6.39628 -16.26387,7.18488 l -2.26387,1.43382 0.26387,102.46795 0.26387,102.46795 -299.73838,-9e-5 -299.738374,-9e-5 -0.261624,-123.25 z M 216.8414,688.30683 c 24.98266,-16.278 42.30873,-25.84929 63.30146,-34.96909 40.51859,-17.60234 83.6384,-27.59243 126.78873,-29.37468 8.4088,-0.34731 15.48626,-0.95109 15.72769,-1.34173 0.24143,-0.39064 -1.59415,-4.88751 -4.07906,-9.99304 l -4.51803,-9.28279 -21.20966,0.60214 c -31.69403,0.89978 -56.06789,4.50275 -86.02187,12.71583 -33.09745,9.07499 -63.43429,22.8344 -91.6878,41.58542 -10.16343,6.74516 -21,15.85646 -21,17.65662 0,1.86742 8.30102,20.74239 9.12229,20.74239 0.42614,0 6.53545,-3.75348 13.57625,-8.34107 z m -60.69854,-82.49154 c 0,-2.20552 26.86632,-21.19162 45.36651,-32.05996 9.34487,-5.48985 32.0657,-17.12322 33.36811,-17.08493 0.42096,0.0124 -5.98462,3.52417 -14.23462,7.80399 -22.16908,11.50055 -42.5483,24.8454 -63.25,41.41774 -0.84573,0.67703 -1.25,0.65218 -1.25,-0.0768 z m -10,-24.97524 c 0,-1.40483 15.66023,-13.09332 30.46926,-22.74166 11.91919,-7.76557 38.12715,-22.45146 40.03074,-22.43162 0.55,0.006 -4.175,2.76368 -10.5,6.12878 -15.33121,8.15667 -30.57172,17.90036 -44.69611,28.57546 -6.38705,4.82729 -12.44332,9.39428 -13.45836,10.14886 -1.088,0.80882 -1.84553,0.94025 -1.84553,0.32018 z m -11,-24.70243 c 0,-0.99361 25.00264,-19.07962 34.88396,-25.2338 9.90679,-6.17005 24.08492,-14.15054 23.11604,-13.0114 -0.275,0.32332 -6.46631,4.19767 -13.75846,8.60966 -13.61668,8.23853 -24.91735,16.073 -36.119,25.04039 -5.8262,4.66413 -8.12254,5.96323 -8.12254,4.59515 z m 105,-1.98972 c 1.375,-0.78602 2.95,-1.42913 3.5,-1.42913 0.55,0 -0.125,0.64311 -1.5,1.42913 -1.375,0.78602 -2.95,1.42913 -3.5,1.42913 -0.55,0 0.125,-0.64311 1.5,-1.42913 z m 6,-2.5 c 0.825,-0.53316 1.95,-0.96937 2.5,-0.96937 0.55,0 0.325,0.43621 -0.5,0.96937 -0.825,0.53316 -1.95,0.96937 -2.5,0.96937 -0.55,0 -0.325,-0.43621 0.5,-0.96937 z m 55.8125,-17.68311 c 0.72187,-0.28887 1.58438,-0.25335 1.91667,0.0789 0.33229,0.33229 -0.25834,0.56864 -1.3125,0.52522 -1.16495,-0.048 -1.4019,-0.28494 -0.60417,-0.60416 z m 4,-1 c 0.72187,-0.28887 1.58438,-0.25335 1.91667,0.0789 0.33229,0.33229 -0.25834,0.56864 -1.3125,0.52522 -1.16495,-0.048 -1.4019,-0.28494 -0.60417,-0.60416 z m -79.8125,-1.81689 c 1.375,-0.78602 2.95,-1.42913 3.5,-1.42913 0.55,0 -0.125,0.64311 -1.5,1.42913 -1.375,0.78602 -2.95,1.42913 -3.5,1.42913 -0.55,0 0.125,-0.64311 1.5,-1.42913 z m -101,-0.006 c 0,-0.9604 22.94803,-17.56771 33.74032,-24.4176 11.09632,-7.0428 30.25968,-17.65173 30.25968,-16.75184 0,0.27656 -4.21903,2.77725 -9.37562,5.55709 -12.0033,6.47079 -33.76704,20.9153 -44.39531,29.46498 -7.42898,5.97608 -10.22907,7.65887 -10.22907,6.14743 z m 190.8125,-0.17717 c 0.72187,-0.28887 1.58438,-0.25335 1.91667,0.0789 0.33229,0.33229 -0.25834,0.56864 -1.3125,0.52522 -1.16495,-0.048 -1.4019,-0.28494 -0.60417,-0.60416 z m -76.8125,-5.31683 c 0.825,-0.53316 1.95,-0.96937 2.5,-0.96937 0.55,0 0.325,0.43621 -0.5,0.96937 -0.825,0.53316 -1.95,0.96937 -2.5,0.96937 -0.55,0 -0.325,-0.43621 0.5,-0.96937 z m -41,-10.49267 c 0,-0.67743 8.12258,-4.71808 8.57497,-4.2657 0.20963,0.20964 -1.63398,1.36018 -4.09691,2.55677 -2.46293,1.19658 -4.47806,1.9656 -4.47806,1.70893 z m -83,-8.32722 c 0,-1.70037 21.85315,-17.64425 36.79193,-26.84308 12.77686,-7.8676 38.03079,-21.36362 39.88661,-21.31591 0.4518,0.0116 -5.47854,3.30049 -13.17854,7.30862 -18.23092,9.48985 -31.71222,17.9592 -47.2284,29.67026 -6.92269,5.225 -13.41581,10.11739 -14.42916,10.87197 -1.1089,0.82574 -1.84244,0.94842 -1.84244,0.30814 z m 100,-0.18011 c 0.825,-0.53316 1.95,-0.96937 2.5,-0.96937 0.55,0 0.325,0.43621 -0.5,0.96937 -0.825,0.53316 -1.95,0.96937 -2.5,0.96937 -0.55,0 -0.325,-0.43621 0.5,-0.96937 z m 97.8125,-1.68311 c 0.72187,-0.28887 1.58438,-0.25335 1.91667,0.0789 0.33229,0.33229 -0.25834,0.56864 -1.3125,0.52522 -1.16495,-0.048 -1.4019,-0.28494 -0.60417,-0.60416 z m -90.8125,-1.31689 c 0.825,-0.53316 1.95,-0.96937 2.5,-0.96937 0.55,0 0.325,0.43621 -0.5,0.96937 -0.825,0.53316 -1.95,0.96937 -2.5,0.96937 -0.55,0 -0.325,-0.43621 0.5,-0.96937 z m 104.8125,-0.68311 c 0.72187,-0.28887 1.58438,-0.25335 1.91667,0.0789 0.33229,0.33229 -0.25834,0.56864 -1.3125,0.52522 -1.16495,-0.048 -1.4019,-0.28494 -0.60417,-0.60416 z m 82.1875,-2.17702 c 0,-1.3469 21.70559,-17.28106 33.89706,-24.88395 11.54177,-7.19774 23.10294,-13.67004 23.10294,-12.93376 0,0.27814 -3.0375,2.19277 -6.75,4.25474 -9.97056,5.53778 -28.48532,17.94156 -38.78353,25.98265 -10.68809,8.34552 -11.46647,8.8601 -11.46647,7.58032 z m -142.1875,-12.82298 c 0.72187,-0.28887 1.58437,-0.25335 1.91667,0.0789 0.33229,0.33229 -0.25834,0.56864 -1.3125,0.52522 -1.16495,-0.048 -1.4019,-0.28494 -0.60417,-0.60416 z m -65.8125,-4.31689 c 1.925,-1.05389 3.95,-1.91617 4.5,-1.91617 0.55,0 -0.575,0.86228 -2.5,1.91617 -1.925,1.05389 -3.95,1.91617 -4.5,1.91617 -0.55,0 0.575,-0.86228 2.5,-1.91617 z m 77.8125,1.31689 c 0.72187,-0.28887 1.58438,-0.25335 1.91667,0.0789 0.33229,0.33229 -0.25834,0.56864 -1.3125,0.52522 -1.16495,-0.048 -1.4019,-0.28494 -0.60417,-0.60416 z m 9,-2 c 0.72187,-0.28887 1.58438,-0.25335 1.91667,0.0789 0.33229,0.33229 -0.25834,0.56864 -1.3125,0.52522 -1.16495,-0.048 -1.4019,-0.28494 -0.60417,-0.60416 z m -182.8125,-1.06997 c 0,-2.33684 28.27245,-22.25197 46.38839,-32.67601 10.71552,-6.16578 27.10083,-14.58059 28.34163,-14.55507 0.42349,0.009 -5.15967,3.13322 -12.40702,6.94336 -17.29618,9.0931 -32.09489,18.44414 -46.72637,29.52556 -6.54686,4.95838 -12.73436,9.63263 -13.75,10.38721 -1.01565,0.75459 -1.84663,0.92331 -1.84663,0.37495 z m 105,-2.24692 c 0.825,-0.53316 1.95,-0.96937 2.5,-0.96937 0.55,0 0.325,0.43621 -0.5,0.96937 -0.825,0.53316 -1.95,0.96937 -2.5,0.96937 -0.55,0 -0.325,-0.43621 0.5,-0.96937 z m 7,-3 c 0.825,-0.53316 1.95,-0.96937 2.5,-0.96937 0.55,0 0.325,0.43621 -0.5,0.96937 -0.825,0.53316 -1.95,0.96937 -2.5,0.96937 -0.55,0 -0.325,-0.43621 0.5,-0.96937 z m 182,-0.9416 c 0,-1.25351 21.56233,-17.00299 33.77007,-24.66621 10.76838,-6.75969 25.22993,-14.83894 25.22993,-14.09523 0,0.26275 -4.1625,2.83545 -9.25,5.71712 -11.45495,6.48832 -31.85273,20.31325 -41.49013,28.12061 -7.47044,6.05189 -8.25987,6.52247 -8.25987,4.92371 z m -166,-5.0584 c 0.825,-0.53316 2.175,-0.94464 3,-0.9144 0.98906,0.0362 0.81874,0.34772 -0.5,0.9144 -2.74909,1.18132 -4.32797,1.18132 -2.5,0 z m 234,-8.49494 c 0,-0.67013 12.12196,-6.71644 12.56907,-6.26933 0.20167,0.20168 -2.54386,1.80194 -6.10119,3.55614 -3.55734,1.7542 -6.46788,2.97514 -6.46788,2.71319 z m -197.1875,-2.18817 c 0.72187,-0.28887 1.58437,-0.25335 1.91667,0.0789 0.33229,0.33229 -0.25834,0.56864 -1.3125,0.52522 -1.16495,-0.048 -1.4019,-0.28494 -0.60417,-0.60416 z m 9,-2 c 0.72187,-0.28887 1.58438,-0.25335 1.91667,0.0789 0.33229,0.33229 -0.25834,0.56864 -1.3125,0.52522 -1.16495,-0.048 -1.4019,-0.28494 -0.60417,-0.60416 z M 94.613055,456.69612 c 2.326348,-3.76411 36.848625,-27.07769 51.029805,-34.46145 10.96801,-5.71074 9.59768,-4.66273 -5.59431,4.27849 -12.17497,7.16555 -27.04955,17.40876 -37.78315,26.01893 -5.899111,4.73209 -9.06971,6.45737 -7.652345,4.16403 z M 199.14286,455.1479 c 1.375,-0.78602 2.95,-1.42913 3.5,-1.42913 0.55,0 -0.125,0.64311 -1.5,1.42913 -1.375,0.78602 -2.95,1.42913 -3.5,1.42913 -0.55,0 0.125,-0.64311 1.5,-1.42913 z m 90.8125,0.81689 c 0.72187,-0.28887 1.58438,-0.25335 1.91667,0.0789 0.33229,0.33229 -0.25834,0.56864 -1.3125,0.52522 -1.16495,-0.048 -1.4019,-0.28494 -0.60417,-0.60416 z m 13,-2 c 0.72187,-0.28887 1.58438,-0.25335 1.91667,0.0789 0.33229,0.33229 -0.25834,0.56864 -1.3125,0.52522 -1.16495,-0.048 -1.4019,-0.28494 -0.60417,-0.60416 z m -97.8125,-1.31689 c 0.825,-0.53316 1.95,-0.96937 2.5,-0.96937 0.55,0 0.325,0.43621 -0.5,0.96937 -0.825,0.53316 -1.95,0.96937 -2.5,0.96937 -0.55,0 -0.325,-0.43621 0.5,-0.96937 z m 105.75,0.33772 c 0.6875,-0.27741 1.8125,-0.27741 2.5,0 0.6875,0.27741 0.125,0.50439 -1.25,0.50439 -1.375,0 -1.9375,-0.22698 -1.25,-0.50439 z m 178.25,-1.83772 c 1.375,-0.78602 2.95,-1.42913 3.5,-1.42913 0.55,0 -0.125,0.64311 -1.5,1.42913 -1.375,0.78602 -2.95,1.42913 -3.5,1.42913 -0.55,0 0.125,-0.64311 1.5,-1.42913 z m -279,-0.5 c 0.825,-0.53316 1.95,-0.96937 2.5,-0.96937 0.55,0 0.325,0.43621 -0.5,0.96937 -0.825,0.53316 -1.95,0.96937 -2.5,0.96937 -0.55,0 -0.325,-0.43621 0.5,-0.96937 z m 178,0.62495 c 0,-0.96558 17.00466,-13.35318 30.68917,-22.35653 12.99973,-8.55281 47.3931,-27.30912 49.96547,-27.2485 0.46495,0.011 -6.82217,3.98514 -16.19359,8.83151 -9.37143,4.84637 -22.32556,12.25855 -28.78696,16.47152 -11.97518,7.80807 -31.02974,21.82544 -32.16462,23.66172 -0.58318,0.94362 -3.50947,1.4775 -3.50947,0.64028 z m 109,-3.62495 c 0.825,-0.53316 1.95,-0.96937 2.5,-0.96937 0.55,0 0.325,0.43621 -0.5,0.96937 -0.825,0.53316 -1.95,0.96937 -2.5,0.96937 -0.55,0 -0.325,-0.43621 0.5,-0.96937 z m -37.45,-11.81007 c 1.29405,-1.10344 6.45,-3.25709 6.45,-2.69417 0,0.55191 -5.60292,3.50424 -6.65034,3.50424 -0.41231,0 -0.32216,-0.36453 0.20034,-0.81007 z m -198.7375,-0.87304 c 0.72187,-0.28887 1.58437,-0.25335 1.91667,0.0789 0.33229,0.33229 -0.25834,0.56864 -1.3125,0.52522 -1.16495,-0.048 -1.4019,-0.28494 -0.60417,-0.60416 z m 4,-1 c 0.72187,-0.28887 1.58437,-0.25335 1.91667,0.0789 0.33229,0.33229 -0.25834,0.56864 -1.3125,0.52522 -1.16495,-0.048 -1.4019,-0.28494 -0.60417,-0.60416 z m 5,-1 c 0.72187,-0.28887 1.58437,-0.25335 1.91667,0.0789 0.33229,0.33229 -0.25834,0.56864 -1.3125,0.52522 -1.16495,-0.048 -1.4019,-0.28494 -0.60417,-0.60416 z m -185.3903,-1.19101 c 0.995103,-1.61011 18.96708,-14.79257 29.35235,-21.52997 12.1749,-7.89842 35.22352,-20.93118 35.87136,-20.28333 0.25034,0.25033 -3.95508,2.7954 -9.34538,5.65571 -11.8113,6.26754 -34.65508,21.2961 -46.213421,30.40308 -7.641323,6.0207 -11.103397,8.08203 -9.664909,5.75451 z m 101.5778,-0.12588 c 0.825,-0.53316 1.95,-0.96937 2.5,-0.96937 0.55,0 0.325,0.43621 -0.5,0.96937 -0.825,0.53316 -1.95,0.96937 -2.5,0.96937 -0.55,0 -0.325,-0.43621 0.5,-0.96937 z m 94.8125,-0.68311 c 0.72187,-0.28887 1.58438,-0.25335 1.91667,0.0789 0.33229,0.33229 -0.25834,0.56864 -1.3125,0.52522 -1.16495,-0.048 -1.4019,-0.28494 -0.60417,-0.60416 z m 195.1875,-3.31689 c 1.925,-1.05389 3.95,-1.91617 4.5,-1.91617 0.55,0 -0.575,0.86228 -2.5,1.91617 -1.925,1.05389 -3.95,1.91617 -4.5,1.91617 -0.55,0 0.575,-0.86228 2.5,-1.91617 z m -98,-0.80785 c 0,-2.22512 28.71461,-22.40815 46.38839,-32.60564 10.68164,-6.16314 27.09409,-14.5987 28.34163,-14.56685 0.42349,0.0108 -5.08095,3.07423 -12.23209,6.80759 -16.45438,8.59027 -32.78646,18.94639 -47.33057,30.01215 -15.40928,11.72404 -15.16736,11.55891 -15.16736,10.35275 z m 192.8125,-0.87526 c 0.72187,-0.28887 1.58438,-0.25335 1.91667,0.0789 0.33229,0.33229 -0.25834,0.56864 -1.3125,0.52522 -1.16495,-0.048 -1.4019,-0.28494 -0.60417,-0.60416 z m -367.8125,-1.31689 c 0.825,-0.53316 1.95,-0.96937 2.5,-0.96937 0.55,0 0.325,0.43621 -0.5,0.96937 -0.825,0.53316 -1.95,0.96937 -2.5,0.96937 -0.55,0 -0.325,-0.43621 0.5,-0.96937 z m 282,-1 c 0.825,-0.53316 1.95,-0.96937 2.5,-0.96937 0.55,0 0.325,0.43621 -0.5,0.96937 -0.825,0.53316 -1.95,0.96937 -2.5,0.96937 -0.55,0 -0.325,-0.43621 0.5,-0.96937 z m 105.8125,-0.68311 c 0.72187,-0.28887 1.58438,-0.25335 1.91667,0.0789 0.33229,0.33229 -0.25834,0.56864 -1.3125,0.52522 -1.16495,-0.048 -1.4019,-0.28494 -0.60417,-0.60416 z m -100.8125,-1.31689 c 0.825,-0.53316 1.95,-0.96937 2.5,-0.96937 0.55,0 0.325,0.43621 -0.5,0.96937 -0.825,0.53316 -1.95,0.96937 -2.5,0.96937 -0.55,0 -0.325,-0.43621 0.5,-0.96937 z m 5,-2 c 0.825,-0.53316 1.95,-0.96937 2.5,-0.96937 0.55,0 0.325,0.43621 -0.5,0.96937 -0.825,0.53316 -1.95,0.96937 -2.5,0.96937 -0.55,0 -0.325,-0.43621 0.5,-0.96937 z m -340,-2.49402 c 0,-0.67311 10.12224,-5.71707 10.57149,-5.26782 0.20494,0.20494 -2.08981,1.5803 -5.09944,3.05636 -3.00963,1.47606 -5.47205,2.47122 -5.47205,2.21146 z m 348,-0.50598 c 0.825,-0.53316 1.95,-0.96937 2.5,-0.96937 0.55,0 0.325,0.43621 -0.5,0.96937 -0.825,0.53316 -1.95,0.96937 -2.5,0.96937 -0.55,0 -0.325,-0.43621 0.5,-0.96937 z m -271.1875,-1.68311 c 0.72187,-0.28887 1.58437,-0.25335 1.91667,0.0789 0.33229,0.33229 -0.25834,0.56864 -1.3125,0.52522 -1.16495,-0.048 -1.4019,-0.28494 -0.60417,-0.60416 z M 74.142857,407.76441 c 0,-1.58764 20.429162,-16.59568 35.481553,-26.06611 11.6632,-7.33808 36.51845,-20.72769 36.51845,-19.67263 0,0.25022 -5.07869,3.12244 -11.28597,6.38271 -18.51114,9.72268 -43.437482,26.26172 -59.464033,39.45536 -0.869457,0.71577 -1.25,0.68553 -1.25,-0.0993 z M 174.14286,407.6479 c 0.825,-0.53316 1.95,-0.96937 2.5,-0.96937 0.55,0 0.325,0.43621 -0.5,0.96937 -0.825,0.53316 -1.95,0.96937 -2.5,0.96937 -0.55,0 -0.325,-0.43621 0.5,-0.96937 z m 7,-3 c 0.825,-0.53316 1.95,-0.96937 2.5,-0.96937 0.55,0 0.325,0.43621 -0.5,0.96937 -0.825,0.53316 -1.95,0.96937 -2.5,0.96937 -0.55,0 -0.325,-0.43621 0.5,-0.96937 z m 105.8125,-0.68311 c 0.72187,-0.28887 1.58438,-0.25335 1.91667,0.0789 0.33229,0.33229 -0.25834,0.56864 -1.3125,0.52522 -1.16495,-0.048 -1.4019,-0.28494 -0.60417,-0.60416 z m 260,0 c 0.72187,-0.28887 1.58438,-0.25335 1.91667,0.0789 0.33229,0.33229 -0.25834,0.56864 -1.3125,0.52522 -1.16495,-0.048 -1.4019,-0.28494 -0.60417,-0.60416 z m 4,-1 c 0.72187,-0.28887 1.58438,-0.25335 1.91667,0.0789 0.33229,0.33229 -0.25834,0.56864 -1.3125,0.52522 -1.16495,-0.048 -1.4019,-0.28494 -0.60417,-0.60416 z m -362.8125,-1.31689 c 0.825,-0.53316 1.95,-0.96937 2.5,-0.96937 0.55,0 0.325,0.43621 -0.5,0.96937 -0.825,0.53316 -1.95,0.96937 -2.5,0.96937 -0.55,0 -0.325,-0.43621 0.5,-0.96937 z m 180,0.13987 c 0,-1.35854 21.74834,-17.30769 34.13089,-25.0299 11.92377,-7.4361 32.91617,-19.10668 34.36911,-19.10727 0.55,-2.2e-4 -4.85,3.21386 -12,7.14242 -15.40053,8.46178 -32.52074,19.64415 -45.03353,29.41443 -10.68809,8.34552 -11.46647,8.8601 -11.46647,7.58032 z m 104,-1.63987 c 1.375,-0.78602 2.95,-1.42913 3.5,-1.42913 0.55,0 -0.125,0.64311 -1.5,1.42913 -1.375,0.78602 -2.95,1.42913 -3.5,1.42913 -0.55,0 0.125,-0.64311 1.5,-1.42913 z m 89.8125,0.81689 c 0.72187,-0.28887 1.58438,-0.25335 1.91667,0.0789 0.33229,0.33229 -0.25834,0.56864 -1.3125,0.52522 -1.16495,-0.048 -1.4019,-0.28494 -0.60417,-0.60416 z m 13,-2 c 0.72187,-0.28887 1.58438,-0.25335 1.91667,0.0789 0.33229,0.33229 -0.25834,0.56864 -1.3125,0.52522 -1.16495,-0.048 -1.4019,-0.28494 -0.60417,-0.60416 z m -375.8125,-1.31689 c 0.825,-0.53316 1.95,-0.96937 2.5,-0.96937 0.55,0 0.325,0.43621 -0.5,0.96937 -0.825,0.53316 -1.95,0.96937 -2.5,0.96937 -0.55,0 -0.325,-0.43621 0.5,-0.96937 z m 382.8125,0.31689 c 0.72187,-0.28887 1.58438,-0.25335 1.91667,0.0789 0.33229,0.33229 -0.25834,0.56864 -1.3125,0.52522 -1.16495,-0.048 -1.4019,-0.28494 -0.60417,-0.60416 z m -93.8125,-4.31689 c 0.825,-0.53316 1.95,-0.96937 2.5,-0.96937 0.55,0 0.325,0.43621 -0.5,0.96937 -0.825,0.53316 -1.95,0.96937 -2.5,0.96937 -0.55,0 -0.325,-0.43621 0.5,-0.96937 z m 14,-5 c 0.825,-0.53316 2.175,-0.94464 3,-0.9144 0.98906,0.0362 0.81874,0.34772 -0.5,0.9144 -2.74909,1.18132 -4.32797,1.18132 -2.5,0 z m -342,-4 c 1.925,-1.05389 3.95,-1.91617 4.5,-1.91617 0.55,0 -0.575,0.86228 -2.5,1.91617 -1.925,1.05389 -3.95,1.91617 -4.5,1.91617 -0.55,0 0.575,-0.86228 2.5,-1.91617 z m 91.8125,-1.68311 c 0.72187,-0.28887 1.58437,-0.25335 1.91667,0.0789 0.33229,0.33229 -0.25834,0.56864 -1.3125,0.52522 -1.16495,-0.048 -1.4019,-0.28494 -0.60417,-0.60416 z m 273,-1 c 0.72187,-0.28887 1.58438,-0.25335 1.91667,0.0789 0.33229,0.33229 -0.25834,0.56864 -1.3125,0.52522 -1.16495,-0.048 -1.4019,-0.28494 -0.60417,-0.60416 z m -355.8125,-1.31689 c 0.825,-0.53316 1.95,-0.96937 2.5,-0.96937 0.55,0 0.325,0.43621 -0.5,0.96937 -0.825,0.53316 -1.95,0.96937 -2.5,0.96937 -0.55,0 -0.325,-0.43621 0.5,-0.96937 z m 100.8125,-0.68311 c 0.72187,-0.28887 1.58437,-0.25335 1.91667,0.0789 0.33229,0.33229 -0.25834,0.56864 -1.3125,0.52522 -1.16495,-0.048 -1.4019,-0.28494 -0.60417,-0.60416 z m 7.9375,-0.97917 c 0.6875,-0.27741 1.8125,-0.27741 2.5,0 0.6875,0.27741 0.125,0.50439 -1.25,0.50439 -1.375,0 -1.9375,-0.22698 -1.25,-0.50439 z m 80.25,-2.23318 c 0,-1.11943 18.65658,-15.0386 30,-22.38219 9.41164,-6.09297 32.63451,-19.25386 37.7334,-21.38432 6.75215,-2.82123 2.84703,-0.28014 -9.36665,6.09494 -14.46538,7.55038 -37.68989,22.63978 -49.41422,32.10536 -8.23588,6.64919 -8.95253,7.09476 -8.95253,5.56621 z m 101,-0.10454 c 0.825,-0.53316 1.95,-0.96937 2.5,-0.96937 0.55,0 0.325,0.43621 -0.5,0.96937 -0.825,0.53316 -1.95,0.96937 -2.5,0.96937 -0.55,0 -0.325,-0.43621 0.5,-0.96937 z m 93.8125,-0.68311 c 0.72187,-0.28887 1.58438,-0.25335 1.91667,0.0789 0.33229,0.33229 -0.25834,0.56864 -1.3125,0.52522 -1.16495,-0.048 -1.4019,-0.28494 -0.60417,-0.60416 z m 6,-1 c 0.72187,-0.28887 1.58438,-0.25335 1.91667,0.0789 0.33229,0.33229 -0.25834,0.56864 -1.3125,0.52522 -1.16495,-0.048 -1.4019,-0.28494 -0.60417,-0.60416 z m -92.8125,-1.31689 c 0.825,-0.53316 1.95,-0.96937 2.5,-0.96937 0.55,0 0.325,0.43621 -0.5,0.96937 -0.825,0.53316 -1.95,0.96937 -2.5,0.96937 -0.55,0 -0.325,-0.43621 0.5,-0.96937 z m 100.8125,0.31689 c 0.72187,-0.28887 1.58438,-0.25335 1.91667,0.0789 0.33229,0.33229 -0.25834,0.56864 -1.3125,0.52522 -1.16495,-0.048 -1.4019,-0.28494 -0.60417,-0.60416 z m -371.8125,-3.31689 c 0.825,-0.53316 1.95,-0.96937 2.5,-0.96937 0.55,0 0.325,0.43621 -0.5,0.96937 -0.825,0.53316 -1.95,0.96937 -2.5,0.96937 -0.55,0 -0.325,-0.43621 0.5,-0.96937 z m 286,-3 c 0.825,-0.53316 1.95,-0.96937 2.5,-0.96937 0.55,0 0.325,0.43621 -0.5,0.96937 -0.825,0.53316 -1.95,0.96937 -2.5,0.96937 -0.55,0 -0.325,-0.43621 0.5,-0.96937 z m -260.1875,-4.68311 c 0.72187,-0.28887 1.58437,-0.25335 1.91667,0.0789 0.33229,0.33229 -0.25834,0.56864 -1.3125,0.52522 -1.16495,-0.048 -1.4019,-0.28494 -0.60417,-0.60416 z m 277,-1 c 0.72187,-0.28887 1.58438,-0.25335 1.91667,0.0789 0.33229,0.33229 -0.25834,0.56864 -1.3125,0.52522 -1.16495,-0.048 -1.4019,-0.28494 -0.60417,-0.60416 z m -348.8125,-1.81689 c 1.375,-0.78602 2.95,-1.42913 3.5,-1.42913 0.55,0 -0.125,0.64311 -1.5,1.42913 -1.375,0.78602 -2.95,1.42913 -3.5,1.42913 -0.55,0 0.125,-0.64311 1.5,-1.42913 z m 79.8125,0.81689 c 0.72187,-0.28887 1.58437,-0.25335 1.91667,0.0789 0.33229,0.33229 -0.25834,0.56864 -1.3125,0.52522 -1.16495,-0.048 -1.4019,-0.28494 -0.60417,-0.60416 z m 9,-2 c 0.72187,-0.28887 1.58437,-0.25335 1.91667,0.0789 0.33229,0.33229 -0.25834,0.56864 -1.3125,0.52522 -1.16495,-0.048 -1.4019,-0.28494 -0.60417,-0.60416 z m 274,-1 c 0.72187,-0.28887 1.58438,-0.25335 1.91667,0.0789 0.33229,0.33229 -0.25834,0.56864 -1.3125,0.52522 -1.16495,-0.048 -1.4019,-0.28494 -0.60417,-0.60416 z m -354.8125,-1.31689 c 0.825,-0.53316 1.95,-0.96937 2.5,-0.96937 0.55,0 0.325,0.43621 -0.5,0.96937 -0.825,0.53316 -1.95,0.96937 -2.5,0.96937 -0.55,0 -0.325,-0.43621 0.5,-0.96937 z m 91.8125,0.31689 c 0.72187,-0.28887 1.58437,-0.25335 1.91667,0.0789 0.33229,0.33229 -0.25834,0.56864 -1.3125,0.52522 -1.16495,-0.048 -1.4019,-0.28494 -0.60417,-0.60416 z m 189.92083,-0.44098 c 0.67834,-0.68342 1.48524,-0.99067 1.79313,-0.68278 0.30789,0.30789 -0.24711,0.86705 -1.23333,1.24258 -1.4252,0.54268 -1.54006,0.42782 -0.5598,-0.5598 z m -176.92083,-1.55902 c 0.72187,-0.28887 1.58437,-0.25335 1.91667,0.0789 0.33229,0.33229 -0.25834,0.56864 -1.3125,0.52522 -1.16495,-0.048 -1.4019,-0.28494 -0.60417,-0.60416 z m 262,0 c 0.72187,-0.28887 1.58438,-0.25335 1.91667,0.0789 0.33229,0.33229 -0.25834,0.56864 -1.3125,0.52522 -1.16495,-0.048 -1.4019,-0.28494 -0.60417,-0.60416 z m -359.8125,-1.31689 c 0.825,-0.53316 1.95,-0.96937 2.5,-0.96937 0.55,0 0.325,0.43621 -0.5,0.96937 -0.825,0.53316 -1.95,0.96937 -2.5,0.96937 -0.55,0 -0.325,-0.43621 0.5,-0.96937 z m 284,-1.5 c 1.375,-0.78602 2.95,-1.42913 3.5,-1.42913 0.55,0 -0.125,0.64311 -1.5,1.42913 -1.375,0.78602 -2.95,1.42913 -3.5,1.42913 -0.55,0 0.125,-0.64311 1.5,-1.42913 z m 84.8125,0.81689 c 0.72187,-0.28887 1.58438,-0.25335 1.91667,0.0789 0.33229,0.33229 -0.25834,0.56864 -1.3125,0.52522 -1.16495,-0.048 -1.4019,-0.28494 -0.60417,-0.60416 z m -363.8125,-1.31689 c 0.825,-0.53316 1.95,-0.96937 2.5,-0.96937 0.55,0 0.325,0.43621 -0.5,0.96937 -0.825,0.53316 -1.95,0.96937 -2.5,0.96937 -0.55,0 -0.325,-0.43621 0.5,-0.96937 z m 179.52778,-0.90861 c 7.80721,-7.55538 42.63552,-30.19074 59.22222,-38.48927 11.00514,-5.50601 8.6619,-3.52259 -3.34802,2.83391 -13.28383,7.03074 -32.92326,19.88105 -45.68295,29.8909 -5.37954,4.22019 -10.31704,7.67307 -10.97223,7.67307 -0.65518,0 -0.30374,-0.85887 0.78098,-1.90861 z m 106.47222,-1.59139 c 1.375,-0.78602 2.95,-1.42913 3.5,-1.42913 0.55,0 -0.125,0.64311 -1.5,1.42913 -1.375,0.78602 -2.95,1.42913 -3.5,1.42913 -0.55,0 0.125,-0.64311 1.5,-1.42913 z m 6,-2.5 c 0.825,-0.53316 1.95,-0.96937 2.5,-0.96937 0.55,0 0.325,0.43621 -0.5,0.96937 -0.825,0.53316 -1.95,0.96937 -2.5,0.96937 -0.55,0 -0.325,-0.43621 0.5,-0.96937 z m -232.1875,-12.68311 c 0.72187,-0.28887 1.58437,-0.25335 1.91667,0.0789 0.33229,0.33229 -0.25834,0.56864 -1.3125,0.52522 -1.16495,-0.048 -1.4019,-0.28494 -0.60417,-0.60416 z m 5,-1 c 0.72187,-0.28887 1.58437,-0.25335 1.91667,0.0789 0.33229,0.33229 -0.25834,0.56864 -1.3125,0.52522 -1.16495,-0.048 -1.4019,-0.28494 -0.60417,-0.60416 z m 6,-1 c 0.72187,-0.28887 1.58437,-0.25335 1.91667,0.0789 0.33229,0.33229 -0.25834,0.56864 -1.3125,0.52522 -1.16495,-0.048 -1.4019,-0.28494 -0.60417,-0.60416 z m 12.9375,-1.97917 c 0.6875,-0.27741 1.8125,-0.27741 2.5,0 0.6875,0.27741 0.125,0.50439 -1.25,0.50439 -1.375,0 -1.9375,-0.22698 -1.25,-0.50439 z m 182.25,-1.33772 c 1.925,-1.05389 3.95,-1.91617 4.5,-1.91617 0.55,0 -0.575,0.86228 -2.5,1.91617 -1.925,1.05389 -3.95,1.91617 -4.5,1.91617 -0.55,0 0.575,-0.86228 2.5,-1.91617 z m -98,-0.76633 c 0,-3.13872 41.09468,-30.69029 60.04339,-40.25558 9.27777,-4.6834 7.00115,-2.7151 -3.29339,2.84737 -13.11221,7.08495 -30.5749,18.4342 -42.64709,27.71693 -14.03875,10.7949 -14.10291,10.83899 -14.10291,9.69128 z m 106,-2.73367 c 1.375,-0.78602 2.95,-1.42913 3.5,-1.42913 0.55,0 -0.125,0.64311 -1.5,1.42913 -1.375,0.78602 -2.95,1.42913 -3.5,1.42913 -0.55,0 0.125,-0.64311 1.5,-1.42913 z m 106.8125,-1.18311 c 0.72187,-0.28887 1.58438,-0.25335 1.91667,0.0789 0.33229,0.33229 -0.25834,0.56864 -1.3125,0.52522 -1.16495,-0.048 -1.4019,-0.28494 -0.60417,-0.60416 z m -100.8125,-1.31689 c 0.825,-0.53316 1.95,-0.96937 2.5,-0.96937 0.55,0 0.325,0.43621 -0.5,0.96937 -0.825,0.53316 -1.95,0.96937 -2.5,0.96937 -0.55,0 -0.325,-0.43621 0.5,-0.96937 z m 5,-2 c 0.825,-0.53316 1.95,-0.96937 2.5,-0.96937 0.55,0 0.325,0.43621 -0.5,0.96937 -0.825,0.53316 -1.95,0.96937 -2.5,0.96937 -0.55,0 -0.325,-0.43621 0.5,-0.96937 z m 8,-3 c 0.825,-0.53316 1.95,-0.96937 2.5,-0.96937 0.55,0 0.325,0.43621 -0.5,0.96937 -0.825,0.53316 -1.95,0.96937 -2.5,0.96937 -0.55,0 -0.325,-0.43621 0.5,-0.96937 z m -41,-12 c 3.025,-1.5981 5.95,-2.90564 6.5,-2.90564 0.55,0 -1.475,1.30754 -4.5,2.90564 -3.025,1.5981 -5.95,2.90564 -6.5,2.90564 -0.55,0 1.475,-1.30754 4.5,-2.90564 z m 75.8125,1.31689 c 0.72187,-0.28887 1.58438,-0.25335 1.91667,0.0789 0.33229,0.33229 -0.25834,0.56864 -1.3125,0.52522 -1.16495,-0.048 -1.4019,-0.28494 -0.60417,-0.60416 z m -169.8125,-4.18769 c 0,-3.15556 56.79438,-40.66815 58.69475,-38.76779 0.22206,0.22207 -3.10591,2.31609 -7.3955,4.65339 -10.46338,5.70125 -28.75727,17.89146 -39.83581,26.54475 -10.69625,8.35469 -11.46344,8.86129 -11.46344,7.56965 z m 104,-1.6292 c 1.375,-0.78602 2.95,-1.42913 3.5,-1.42913 0.55,0 -0.125,0.64311 -1.5,1.42913 -1.375,0.78602 -2.95,1.42913 -3.5,1.42913 -0.55,0 0.125,-0.64311 1.5,-1.42913 z m 89.8125,0.81689 c 0.72187,-0.28887 1.58438,-0.25335 1.91667,0.0789 0.33229,0.33229 -0.25834,0.56864 -1.3125,0.52522 -1.16495,-0.048 -1.4019,-0.28494 -0.60417,-0.60416 z m 13,-2 c 0.72187,-0.28887 1.58438,-0.25335 1.91667,0.0789 0.33229,0.33229 -0.25834,0.56864 -1.3125,0.52522 -1.16495,-0.048 -1.4019,-0.28494 -0.60417,-0.60416 z m 6.9375,-0.97917 c 0.6875,-0.27741 1.8125,-0.27741 2.5,0 0.6875,0.27741 0.125,0.50439 -1.25,0.50439 -1.375,0 -1.9375,-0.22698 -1.25,-0.50439 z m -93.75,-4.33772 c 0.825,-0.53316 1.95,-0.96937 2.5,-0.96937 0.55,0 0.325,0.43621 -0.5,0.96937 -0.825,0.53316 -1.95,0.96937 -2.5,0.96937 -0.55,0 -0.325,-0.43621 0.5,-0.96937 z m -39,-12.5 c 2.475,-1.32529 4.95,-2.40963 5.5,-2.40963 0.55,0 -1.025,1.08434 -3.5,2.40963 -2.475,1.32529 -4.95,2.40963 -5.5,2.40963 -0.55,0 1.025,-1.08434 3.5,-2.40963 z m 71.8125,1.81689 c 0.72187,-0.28887 1.58438,-0.25335 1.91667,0.0789 0.33229,0.33229 -0.25834,0.56864 -1.3125,0.52522 -1.16495,-0.048 -1.4019,-0.28494 -0.60417,-0.60416 z m 4,-1 c 0.72187,-0.28887 1.58438,-0.25335 1.91667,0.0789 0.33229,0.33229 -0.25834,0.56864 -1.3125,0.52522 -1.16495,-0.048 -1.4019,-0.28494 -0.60417,-0.60416 z m 4,-1 c 0.72187,-0.28887 1.58438,-0.25335 1.91667,0.0789 0.33229,0.33229 -0.25834,0.56864 -1.3125,0.52522 -1.16495,-0.048 -1.4019,-0.28494 -0.60417,-0.60416 z m 13,-3 c 0.72187,-0.28887 1.58438,-0.25335 1.91667,0.0789 0.33229,0.33229 -0.25834,0.56864 -1.3125,0.52522 -1.16495,-0.048 -1.4019,-0.28494 -0.60417,-0.60416 z m -81.8125,-1.81689 c 1.375,-0.78602 2.95,-1.42913 3.5,-1.42913 0.55,0 -0.125,0.64311 -1.5,1.42913 -1.375,0.78602 -2.95,1.42913 -3.5,1.42913 -0.55,0 0.125,-0.64311 1.5,-1.42913 z m 86.8125,0.81689 c 0.72187,-0.28887 1.58438,-0.25335 1.91667,0.0789 0.33229,0.33229 -0.25834,0.56864 -1.3125,0.52522 -1.16495,-0.048 -1.4019,-0.28494 -0.60417,-0.60416 z m 19,-3 c 0.72187,-0.28887 1.58438,-0.25335 1.91667,0.0789 0.33229,0.33229 -0.25834,0.56864 -1.3125,0.52522 -1.16495,-0.048 -1.4019,-0.28494 -0.60417,-0.60416 z m -97.8125,-1.31689 c 0.825,-0.53316 1.95,-0.96937 2.5,-0.96937 0.55,0 0.325,0.43621 -0.5,0.96937 -0.825,0.53316 -1.95,0.96937 -2.5,0.96937 -0.55,0 -0.325,-0.43621 0.5,-0.96937 z m 105.75,0.33772 c 0.6875,-0.27741 1.8125,-0.27741 2.5,0 0.6875,0.27741 0.125,0.50439 -1.25,0.50439 -1.375,0 -1.9375,-0.22698 -1.25,-0.50439 z m -100.75,-2.33772 c 0.825,-0.53316 1.95,-0.96937 2.5,-0.96937 0.55,0 0.325,0.43621 -0.5,0.96937 -0.825,0.53316 -1.95,0.96937 -2.5,0.96937 -0.55,0 -0.325,-0.43621 0.5,-0.96937 z m 8,-3 c 0.825,-0.53316 1.95,-0.96937 2.5,-0.96937 0.55,0 0.325,0.43621 -0.5,0.96937 -0.825,0.53316 -1.95,0.96937 -2.5,0.96937 -0.55,0 -0.325,-0.43621 0.5,-0.96937 z m -53,-5.4905 c 0,-0.68426 6.12291,-3.71992 6.58037,-3.26246 0.21698,0.21698 -1.17483,1.14288 -3.09293,2.05756 -1.91809,0.91467 -3.48744,1.45688 -3.48744,1.2049 z m 8,-4 c 0,-0.68426 6.12291,-3.71992 6.58037,-3.26246 0.21698,0.21698 -1.17483,1.14288 -3.09293,2.05756 -1.91809,0.91467 -3.48744,1.45688 -3.48744,1.2049 z m 87.8125,-3.19261 c 0.72187,-0.28887 1.58438,-0.25335 1.91667,0.0789 0.33229,0.3323 -0.25834,0.56864 -1.3125,0.52522 -1.16495,-0.048 -1.4019,-0.28494 -0.60417,-0.60416 z m -75.8125,-2.81689 c 1.375,-0.78602 2.95,-1.42913 3.5,-1.42913 0.55,0 -0.125,0.64311 -1.5,1.42913 -1.375,0.78602 -2.95,1.42913 -3.5,1.42913 -0.55,0 0.125,-0.64311 1.5,-1.42913 z m 95.8125,-1.18311 c 0.72187,-0.28887 1.58438,-0.25335 1.91667,0.0789 0.33229,0.3323 -0.25834,0.56864 -1.3125,0.52522 -1.16495,-0.048 -1.4019,-0.28494 -0.60417,-0.60416 z m 6,-1 c 0.72187,-0.28887 1.58438,-0.25335 1.91667,0.0789 0.33229,0.3323 -0.25834,0.56864 -1.3125,0.52522 -1.16495,-0.048 -1.4019,-0.28494 -0.60417,-0.60416 z m 8,-1 c 0.72187,-0.28887 1.58438,-0.25335 1.91667,0.0789 0.33229,0.3323 -0.25834,0.56864 -1.3125,0.52522 -1.16495,-0.048 -1.4019,-0.28494 -0.60417,-0.60416 z m 8,-1 c 0.72187,-0.28887 1.58438,-0.25335 1.91667,0.0789 0.33229,0.3323 -0.25834,0.56864 -1.3125,0.52522 -1.16495,-0.048 -1.4019,-0.28494 -0.60417,-0.60416 z m -104.8125,-1.31689 c 0.825,-0.53316 1.95,-0.96937 2.5,-0.96937 0.55,0 0.325,0.43621 -0.5,0.96937 -0.825,0.53316 -1.95,0.96937 -2.5,0.96937 -0.55,0 -0.325,-0.43621 0.5,-0.96937 z m 37.8125,-12.68311 c 0.72187,-0.28888 1.58438,-0.25335 1.91667,0.079 0.33229,0.33229 -0.25834,0.56864 -1.3125,0.52522 -1.16495,-0.048 -1.4019,-0.28495 -0.60417,-0.60417 z m 16,-4 c 0.72187,-0.28888 1.58438,-0.25335 1.91667,0.079 0.33229,0.33229 -0.25834,0.56864 -1.3125,0.52522 -1.16495,-0.048 -1.4019,-0.28495 -0.60417,-0.60417 z m 35,-6 c 0.72187,-0.28888 1.58438,-0.25335 1.91667,0.079 0.33229,0.33229 -0.25834,0.56864 -1.3125,0.52522 -1.16495,-0.048 -1.4019,-0.28495 -0.60417,-0.60417 z"
           style="fill:#777688" />
        <path
           id="path2836"
           d="m 62.642857,623.39767 0,-123.24977 -19.742545,-47.27381 c -10.8584,-26.00059 -20.481857,-48.40213 -21.385459,-49.7812 -0.903602,-1.37908 -1.469457,-2.61172 -1.257454,-2.73921 2.604128,-1.56603 11.315773,-3.67546 12.068881,-2.92236 0.866376,0.86638 27.80546,65.52333 91.96077,220.71658 13.18713,31.9 24.7623,59.125 25.72259,60.5 1.71494,2.45556 7.59899,15.99067 16.1935,37.25 2.39025,5.9125 4.74857,10.75 5.24073,10.75 0.49215,0 5.68826,-4.17608 11.54691,-9.28017 19.59832,-17.07419 31.2423,-25.78652 50.92669,-38.10467 53.24386,-33.3191 110.93536,-51.08421 176.06233,-54.2154 10.42022,-0.50098 14.47488,-1.04878 14.84188,-2.00517 0.66555,-1.73437 18.232,-17.05542 30.81763,-26.87841 46.6446,-36.40575 103.42629,-61.46469 160.77125,-70.95171 19.73578,-3.26504 33.22111,-4.56447 47.36964,-4.56447 9.18799,0 11.53715,-0.29114 11.99593,-1.48669 0.31377,-0.81768 -2.15786,-8.13018 -5.49252,-16.25 -3.33466,-8.11982 -7.69167,-18.81331 -9.68225,-23.76331 -4.25207,-10.57368 -114.49534,-277.538 -121.69964,-294.70698 -3.41205,-8.13144 -5.51626,-11.89863 -6.88957,-12.33451 -4.61593,-1.46504 -43.61249,1.95532 -64.27258,5.6373 -65.25863,11.6302 -130.46058,44.42785 -177.19152,89.13024 l -9.90519,9.47522 -15.84537,0.66652 c -69.77497,2.93503 -135.39051,25.34709 -192.003793,65.58203 -4.833637,3.43526 -8.976073,6.05828 -9.205414,5.82894 -0.22934,-0.22934 -0.535882,-45.72342 -0.681204,-101.09797 l -0.264222,-100.68098 299.250003,1e-4 299.25,9e-5 0,151.21576 0,151.21576 15.09753,36.46828 c 8.30364,20.05755 15.7774,37.50587 16.60834,38.77405 1.38326,2.11112 1.35392,2.35607 -0.34754,2.9015 -4.38969,1.40719 -27.05527,10.81513 -29.10833,12.08217 l -2.25,1.38859 0,102.97694 0,102.97695 -299.25,-2.3e-4 -299.250003,-2.3e-4 0,-123.24977 z M 418.52336,608.01615 c -1.49754,-3.58412 -1.476,-3.6745 1.64211,-6.89158 6.70797,-6.92086 14.23045,-8.48541 10.81711,-2.24977 -1.96203,3.58431 -9.20811,12.68091 -10.14075,12.7305 -0.44056,0.0234 -1.48387,-1.59169 -2.31847,-3.58915 z m -7.40119,-17.93095 c -1.39751,-4.23448 -0.38975,-5.72321 7.47509,-11.04282 5.27573,-3.56838 7.14985,-3.11398 5.46238,1.32441 -1.25009,3.28799 -9.15191,13.15687 -10.58923,13.2253 -0.64484,0.0307 -1.70155,-1.5474 -2.34824,-3.50689 z"
           style="fill:#972d47" />
        <path
           id="path2834"
           d="m 162.45855,744.78179 c -1.02332,-1.6386 -18.86226,-44.2881 -39.37322,-94.13389 -7.89196,-19.17906 -12.55597,-30.43966 -20.79961,-50.2178 -3.274094,-7.85521 -10.329179,-24.8572 -15.677965,-37.7822 -5.348786,-12.925 -12.603484,-30.42436 -16.121552,-38.88746 -3.518067,-8.46311 -6.835096,-17.34462 -7.371173,-19.73671 -1.109992,-4.95301 -39.089196,-97.0986 -41.600177,-100.93084 -0.903602,-1.37908 -1.469457,-2.61172 -1.257454,-2.73921 2.604128,-1.56603 11.315773,-3.67546 12.068881,-2.92236 0.866376,0.86638 27.80546,65.52333 91.96077,220.71658 13.18713,31.9 24.7623,59.125 25.72259,60.5 1.71494,2.45556 7.59899,15.99067 16.1935,37.25 2.39025,5.9125 4.74857,10.75 5.24073,10.75 0.49215,0 5.68826,-4.17608 11.54691,-9.28017 19.59832,-17.07419 31.2423,-25.78652 50.92669,-38.10467 53.24386,-33.3191 110.93536,-51.08421 176.06233,-54.2154 10.42022,-0.50098 14.47488,-1.04878 14.84188,-2.00517 0.66555,-1.73437 18.232,-17.05542 30.81763,-26.87841 46.6446,-36.40575 103.42629,-61.46469 160.77125,-70.95171 19.73578,-3.26504 33.22111,-4.56447 47.36964,-4.56447 9.18799,0 11.53715,-0.29114 11.99593,-1.48669 0.31377,-0.81768 -2.15786,-8.13018 -5.49252,-16.25 -3.33466,-8.11982 -7.69199,-18.81331 -9.68296,-23.76331 -1.99096,-4.95 -29.76381,-72.225 -61.71743,-149.5 -31.95363,-77.275 -58.27845,-141.63684 -58.4996,-143.02632 -0.33252,-2.08916 0.22338,-2.82459 3.2125,-4.25 5.08411,-2.42444 7.26654,-2.17268 8.89693,1.02632 0.77086,1.5125 5.11055,11.75 9.64377,22.75 4.53323,11 11.51897,27.875 15.52388,37.5 4.00491,9.625 13.88839,33.475 21.96328,53 8.07489,19.525 16.64322,40.225 19.04074,46 2.39751,5.775 9.95276,24 16.78943,40.5 6.83667,16.5 15.01492,36.2343 18.17388,43.85399 3.15897,7.6197 6.30849,16.1697 6.99893,19 1.3574,5.56429 29.70875,74.4845 32.21174,78.30456 1.39558,2.12992 1.36778,2.37035 -0.33751,2.91933 -6.33381,2.03904 -29.44091,11.96552 -32.35833,13.90068 -1.925,1.27688 -19.025,8.71205 -38,16.5226 -18.975,7.81056 -48.9,20.18691 -66.5,27.503 -17.6,7.3161 -42.575,17.67146 -55.5,23.01193 -12.925,5.34047 -27.63956,11.45909 -32.69901,13.59693 -5.05946,2.13784 -9.61474,3.88698 -10.12285,3.88698 -0.50811,0 -3.95868,2.48761 -7.66793,5.52803 -11.4826,9.41209 -28.828,16.40017 -40.84264,16.45461 -3.86312,0.0175 -13.14226,3.66156 -77.66757,30.50128 -16.225,6.74889 -37.375,15.51647 -47,19.48352 -9.625,3.96704 -22.225,9.17499 -28,11.57322 -83.7956,34.79848 -90.33033,37.45934 -91.99534,37.45934 -0.28796,0 -1.048,-0.83975 -1.68897,-1.86611 z M 418.52336,608.01615 c -1.49754,-3.58412 -1.476,-3.6745 1.64211,-6.89158 6.70797,-6.92086 14.23045,-8.48541 10.81711,-2.24977 -1.96203,3.58431 -9.20811,12.68091 -10.14075,12.7305 -0.44056,0.0234 -1.48387,-1.59169 -2.31847,-3.58915 z m -7.40119,-17.93095 c -1.39751,-4.23448 -0.38975,-5.72321 7.47509,-11.04282 5.27573,-3.56838 7.14985,-3.11398 5.46238,1.32441 -1.25009,3.28799 -9.15191,13.15687 -10.58923,13.2253 -0.64484,0.0307 -1.70155,-1.5474 -2.34824,-3.50689 z"
           style="fill:#572630" />
        <path
           id="path2832"
           d="m 163.34782,744.82257 c 0.0381,-0.92107 -7.23201,-19.22467 -16.15584,-40.67467 -16.46569,-39.57816 -26.50411,-63.80914 -46.19223,-111.5 -6.016966,-14.575 -12.01245,-28.975 -13.323295,-32 -5.832308,-13.45904 -21.983524,-53.10457 -24.036045,-59 -1.244653,-3.575 -8.902092,-22.475 -17.01653,-42 -21.419978,-51.54085 -23.641364,-57.13978 -23.163946,-58.38391 0.425524,-1.10889 7.528793,-4.1202 8.1567,-3.45789 0.309398,0.32635 24.162745,57.79515 87.720726,211.3416 15.93638,38.49989 29.30719,70.44989 29.7129,71 0.73372,0.99485 5.09415,11.25559 15.26486,35.92045 2.93026,7.10613 5.87561,13.10126 6.54523,13.3225 0.66963,0.22123 5.32246,-3.48802 10.33963,-8.24278 49.55522,-46.96339 119.18603,-80.72666 187.44288,-90.88915 17.58632,-2.61836 19.68451,-2.81207 37.64738,-3.47578 l 17.64738,-0.65206 8.85262,-8.51147 c 41.08605,-39.50277 97.73241,-70.6268 155.35262,-85.35762 24.58718,-6.28581 56.17403,-10.60323 77.62756,-10.61047 7.42198,-0.003 10.43568,-0.3747 11.28096,-1.3932 0.90255,-1.0875 -0.28651,-4.83932 -5.46703,-17.25 -3.64125,-8.72312 -9.23397,-22.38522 -12.42827,-30.36022 -3.19431,-7.975 -14.66907,-35.875 -25.49947,-62 -10.8304,-26.125 -26.20568,-63.25 -34.1673,-82.5 -7.96162,-19.25 -21.38328,-51.65 -29.82591,-72 -26.43476,-63.718 -28.52054,-68.83905 -28.52054,-70.02424 0,-1.56659 7.79556,-4.08446 8.96544,-2.89573 0.89916,0.91364 6.99187,15.07944 18.02979,41.91997 17.05167,41.46395 20.577,50.00294 25.08074,60.75 23.8884,57.00383 66.92403,161.51772 66.92403,162.52792 0,0.53093 6.975,17.74532 15.5,38.25421 8.525,20.50889 15.5,37.82786 15.5,38.4866 0,0.65874 -5.2875,3.36291 -11.75,6.00926 -6.4625,2.64635 -14.29752,6.07144 -17.41115,7.61132 -5.21607,2.57966 -29.3145,12.6415 -121.83885,50.87147 -18.975,7.84024 -41.7,17.27355 -50.5,20.9629 -8.8,3.68934 -20.275,8.45769 -25.5,10.59632 -5.74025,2.34953 -11.82818,5.75511 -15.38276,8.60511 -11.40657,9.14556 -23.27422,14.0534 -38.21345,15.80308 -6.68379,0.7828 -12.22577,2.72656 -35.90379,12.59268 -15.4,6.41685 -30.475,12.67746 -33.5,13.91246 -6.01793,2.45692 -76.90642,31.77926 -133,55.01417 -19.525,8.08759 -37.60698,15.75031 -40.18218,17.02827 -4.10432,2.0368 -4.67362,2.11688 -4.61286,0.6489 z M 692.30075,525.6479 c 0,-1.375 0.22698,-1.9375 0.50439,-1.25 0.27741,0.6875 0.27741,1.8125 0,2.5 -0.27741,0.6875 -0.50439,0.125 -0.50439,-1.25 z M 21.221804,401.06457 c 0.04798,-1.16495 0.284941,-1.4019 0.604167,-0.60417 0.288871,0.72187 0.253344,1.58437 -0.07895,1.91667 -0.332292,0.33229 -0.56864,-0.25834 -0.525219,-1.3125 z"
           style="fill:#361d20" />
      </g>
      <g
         transform="translate(1254.2857,65.714286)"
         id="g3753">
        <rect
           style="fill:#16ff00;fill-opacity:1;stroke:#0aff00;stroke-width:0.5725528;stroke-linejoin:round;stroke-opacity:0.96680453"
           id="rect2853"
           width="70.342201"
           height="254.37703"
           x="-1095.8578"
           y="363.42969"
           ry="14.647204"
           rx="35.171101" />
        <rect
           style="fill:#16ff00;fill-opacity:1;stroke:#0aff00;stroke-width:0.5725528;stroke-linejoin:round;stroke-opacity:0.96680453"
           id="rect2853-2"
           width="70.342201"
           height="254.37703"
           x="455.0412"
           y="934.48181"
           ry="14.647204"
           rx="35.171101"
           transform="matrix(0,1,-1,0,0,0)" />
      </g>
    </g>
  </g>
</svg>
